<svg width="335" height="154" viewBox="0 0 335 154" fill="none" xmlns="http://www.w3.org/2000/svg">
<path d="M21 0.5V153.5" stroke="white" stroke-opacity="0.04" stroke-width="1.5"/>
<path d="M109 13V109.5" stroke="white" stroke-opacity="0.04" stroke-width="1.5"/>
<path d="M152 77V139.5" stroke="white" stroke-opacity="0.04" stroke-width="1.5"/>
<path d="M65 42V146.5" stroke="white" stroke-opacity="0.04" stroke-width="1.5"/>
<path d="M220 5.5V109.5" stroke="white" stroke-opacity="0.04" stroke-width="1.5"/>
<path d="M308 4V150.5" stroke="white" stroke-opacity="0.04" stroke-width="1.5"/>
<path d="M264 33V152.5" stroke="white" stroke-opacity="0.04" stroke-width="1.5"/>
<path d="M321.001 42.5156L0.000114441 42.5156" stroke="white" stroke-opacity="0.04" stroke-width="1.5"/>
<path d="M335 77.2578L-3.05176e-05 77.2578" stroke="white" stroke-opacity="0.04" stroke-width="1.5"/>
<path d="M321.001 108.516L0.00012207 108.516" stroke="url(#paint0_linear_32_2)" stroke-width="1.5"/>
<path d="M153 138.258L-0.000261903 138.258" stroke="white" stroke-opacity="0.04" stroke-width="1.5"/>
<g filter="url(#filter0_d_32_2)">
<path d="M167.5 40L183.662 49.5057L199.975 58.75L199.825 77.5L199.975 96.25L183.662 105.494L167.5 115L151.337 105.494L135.024 96.25L135.175 77.5L135.024 58.75L151.337 49.5057L167.5 40Z" fill="#110921"/>
<path d="M167.5 40L183.662 49.5057L199.975 58.75L199.825 77.5L199.975 96.25L183.662 105.494L167.5 115L151.337 105.494L135.024 96.25L135.175 77.5L135.024 58.75L151.337 49.5057L167.5 40Z" stroke="url(#paint1_linear_32_2)" stroke-width="1.83"/>
</g>
<path fill-rule="evenodd" clip-rule="evenodd" d="M160.565 68C159.701 68 159 68.7129 159 69.5904V70.5264C159 71.1765 159.247 71.8016 159.689 72.2718L164.535 77.4243L164.537 77.4211C165.472 78.3788 165.999 79.6734 165.999 81.0233V85.5952C165.999 85.9007 166.318 86.0957 166.584 85.9516L169.343 84.4479C169.76 84.2204 170.02 83.7784 170.02 83.2984V81.0114C170.02 79.6691 170.539 78.3799 171.466 77.4243L176.311 72.2718C176.753 71.8016 177 71.1765 177 70.5264V69.5904C177 68.7129 176.3 68 175.436 68H160.565Z" stroke="url(#paint2_linear_32_2)" stroke-width="1.5" stroke-linecap="round" stroke-linejoin="round"/>
<rect x="221.114" y="60.1999" width="112.904" height="27.3088" rx="13.6544" stroke="white" stroke-opacity="0.5" stroke-width="0.407594"/>
<path d="M235.102 78.2578V68.772H240.827V69.791H236.25V72.9961H240.53V74.0151H236.25V77.2388H240.901V78.2578H235.102ZM243.842 73.9781V78.2578H242.749V71.1434H243.805V72.2551H243.897C244.064 71.8938 244.317 71.6035 244.657 71.3843C244.997 71.162 245.435 71.0508 245.973 71.0508C246.454 71.0508 246.876 71.1496 247.237 71.3472C247.598 71.5418 247.879 71.8382 248.08 72.2365C248.281 72.6318 248.381 73.132 248.381 73.7372V78.2578H247.288V73.8113C247.288 73.2524 247.143 72.817 246.853 72.5052C246.562 72.1902 246.164 72.0327 245.658 72.0327C245.309 72.0327 244.997 72.1084 244.722 72.2597C244.45 72.411 244.236 72.6318 244.078 72.922C243.921 73.2123 243.842 73.5643 243.842 73.9781ZM253.472 71.1434V72.0698H249.786V71.1434H253.472ZM250.86 69.439H251.953V76.2198C251.953 76.5286 251.998 76.7602 252.088 76.9146C252.18 77.0659 252.298 77.1678 252.44 77.2203C252.585 77.2697 252.738 77.2944 252.898 77.2944C253.019 77.2944 253.117 77.2882 253.195 77.2759C253.272 77.2604 253.334 77.2481 253.38 77.2388L253.602 78.2208C253.528 78.2485 253.425 78.2763 253.292 78.3041C253.159 78.335 252.991 78.3504 252.787 78.3504C252.478 78.3504 252.176 78.2841 251.879 78.1513C251.586 78.0185 251.342 77.8163 251.147 77.5445C250.956 77.2728 250.86 76.93 250.86 76.5163V69.439ZM258.023 78.406C257.338 78.406 256.746 78.2547 256.249 77.9521C255.755 77.6464 255.374 77.2203 255.105 76.6738C254.84 76.1241 254.707 75.4849 254.707 74.7562C254.707 74.0275 254.84 73.3852 255.105 72.8294C255.374 72.2705 255.747 71.8351 256.226 71.5232C256.708 71.2083 257.27 71.0508 257.912 71.0508C258.283 71.0508 258.648 71.1126 259.01 71.2361C259.371 71.3596 259.7 71.5603 259.996 71.8382C260.293 72.113 260.529 72.4774 260.705 72.9313C260.881 73.3852 260.969 73.9441 260.969 74.608V75.0712H255.485V74.1263H259.857C259.857 73.7249 259.777 73.3667 259.617 73.0517C259.459 72.7368 259.234 72.4882 258.94 72.306C258.65 72.1238 258.307 72.0327 257.912 72.0327C257.477 72.0327 257.1 72.1408 256.782 72.357C256.467 72.57 256.225 72.8479 256.055 73.1907C255.885 73.5334 255.8 73.9009 255.8 74.293V74.923C255.8 75.4602 255.893 75.9157 256.078 76.2893C256.266 76.6599 256.527 76.9424 256.861 77.1369C257.194 77.3284 257.582 77.4241 258.023 77.4241C258.31 77.4241 258.57 77.384 258.801 77.3037C259.036 77.2203 259.238 77.0968 259.408 76.9331C259.578 76.7664 259.709 76.5595 259.802 76.3125L260.858 76.6089C260.747 76.9671 260.56 77.2821 260.297 77.5538C260.035 77.8224 259.711 78.0324 259.325 78.1837C258.939 78.3319 258.505 78.406 258.023 78.406ZM262.632 78.2578V71.1434H263.688V72.218H263.762C263.892 71.866 264.126 71.5804 264.466 71.3611C264.806 71.1419 265.189 71.0323 265.615 71.0323C265.695 71.0323 265.795 71.0338 265.916 71.0369C266.036 71.04 266.127 71.0446 266.189 71.0508V72.1624C266.152 72.1532 266.067 72.1393 265.934 72.1207C265.805 72.0991 265.667 72.0883 265.522 72.0883C265.176 72.0883 264.867 72.1609 264.596 72.306C264.327 72.4481 264.114 72.6457 263.956 72.8989C263.802 73.149 263.725 73.4346 263.725 73.7557V78.2578H262.632ZM271.025 71.1434V72.0698H267.338V71.1434H271.025ZM268.412 69.439H269.505V76.2198C269.505 76.5286 269.55 76.7602 269.64 76.9146C269.732 77.0659 269.85 77.1678 269.992 77.2203C270.137 77.2697 270.29 77.2944 270.45 77.2944C270.571 77.2944 270.669 77.2882 270.747 77.2759C270.824 77.2604 270.886 77.2481 270.932 77.2388L271.154 78.2208C271.08 78.2485 270.977 78.2763 270.844 78.3041C270.711 78.335 270.543 78.3504 270.339 78.3504C270.03 78.3504 269.728 78.2841 269.431 78.1513C269.138 78.0185 268.894 77.8163 268.699 77.5445C268.508 77.2728 268.412 76.93 268.412 76.5163V69.439ZM274.762 78.4246C274.312 78.4246 273.902 78.3396 273.535 78.1698C273.167 77.9969 272.876 77.7483 272.66 77.4241C272.443 77.0968 272.335 76.7015 272.335 76.2384C272.335 75.8308 272.416 75.5004 272.576 75.2472C272.737 74.9909 272.951 74.7902 273.22 74.645C273.489 74.4999 273.785 74.3918 274.109 74.3208C274.437 74.2467 274.765 74.188 275.096 74.1448C275.528 74.0892 275.879 74.0475 276.147 74.0198C276.419 73.9889 276.617 73.9379 276.74 73.8669C276.867 73.7959 276.93 73.6724 276.93 73.4964V73.4593C276.93 73.0023 276.805 72.6472 276.555 72.394C276.308 72.1408 275.933 72.0142 275.429 72.0142C274.907 72.0142 274.498 72.1285 274.202 72.357C273.905 72.5855 273.697 72.8294 273.577 73.0888L272.539 72.7182C272.724 72.2859 272.971 71.9494 273.28 71.7085C273.592 71.4646 273.932 71.2947 274.299 71.199C274.67 71.1002 275.034 71.0508 275.392 71.0508C275.621 71.0508 275.883 71.0786 276.18 71.1342C276.479 71.1867 276.768 71.2963 277.046 71.463C277.327 71.6298 277.56 71.8814 277.745 72.218C277.93 72.5546 278.023 73.0054 278.023 73.5705V78.2578H276.93V77.2944H276.874C276.8 77.4488 276.677 77.614 276.504 77.79C276.331 77.966 276.101 78.1158 275.814 78.2393C275.527 78.3628 275.176 78.4246 274.762 78.4246ZM274.929 77.4426C275.361 77.4426 275.726 77.3577 276.022 77.1879C276.322 77.018 276.547 76.7988 276.698 76.5302C276.853 76.2615 276.93 75.979 276.93 75.6826V74.6821C276.884 74.7377 276.782 74.7886 276.624 74.8349C276.47 74.8782 276.291 74.9168 276.087 74.9507C275.886 74.9816 275.69 75.0094 275.499 75.0341C275.31 75.0557 275.158 75.0743 275.04 75.0897C274.756 75.1267 274.491 75.187 274.244 75.2703C274 75.3506 273.802 75.4726 273.651 75.6362C273.503 75.7968 273.428 76.016 273.428 76.2939C273.428 76.6738 273.569 76.9609 273.85 77.1555C274.134 77.3469 274.494 77.4426 274.929 77.4426ZM280.018 78.2578V71.1434H281.111V78.2578H280.018ZM280.574 69.9577C280.361 69.9577 280.177 69.8851 280.023 69.74C279.872 69.5949 279.796 69.4204 279.796 69.2166C279.796 69.0128 279.872 68.8384 280.023 68.6932C280.177 68.5481 280.361 68.4756 280.574 68.4756C280.787 68.4756 280.969 68.5481 281.121 68.6932C281.275 68.8384 281.352 69.0128 281.352 69.2166C281.352 69.4204 281.275 69.5949 281.121 69.74C280.969 69.8851 280.787 69.9577 280.574 69.9577ZM284.206 73.9781V78.2578H283.113V71.1434H284.169V72.2551H284.262C284.429 71.8938 284.682 71.6035 285.022 71.3843C285.361 71.162 285.8 71.0508 286.337 71.0508C286.819 71.0508 287.24 71.1496 287.602 71.3472C287.963 71.5418 288.244 71.8382 288.445 72.2365C288.645 72.6318 288.746 73.132 288.746 73.7372V78.2578H287.653V73.8113C287.653 73.2524 287.507 72.817 287.217 72.5052C286.927 72.1902 286.529 72.0327 286.022 72.0327C285.673 72.0327 285.361 72.1084 285.087 72.2597C284.815 72.411 284.6 72.6318 284.443 72.922C284.285 73.2123 284.206 73.5643 284.206 73.9781ZM290.743 78.2578V71.1434H291.799V72.2551H291.892C292.04 71.8753 292.279 71.5804 292.61 71.3704C292.94 71.1573 293.337 71.0508 293.8 71.0508C294.269 71.0508 294.66 71.1573 294.972 71.3704C295.287 71.5804 295.532 71.8753 295.708 72.2551H295.782C295.965 71.8876 296.238 71.5958 296.602 71.3797C296.967 71.1604 297.404 71.0508 297.913 71.0508C298.549 71.0508 299.069 71.25 299.474 71.6483C299.878 72.0435 300.081 72.6596 300.081 73.4964V78.2578H298.988V73.4964C298.988 72.9714 298.844 72.5963 298.557 72.3709C298.27 72.1454 297.932 72.0327 297.542 72.0327C297.042 72.0327 296.655 72.184 296.38 72.4866C296.105 72.7862 295.968 73.166 295.968 73.6261V78.2578H294.856V73.3852C294.856 72.9807 294.725 72.6549 294.462 72.4079C294.2 72.1578 293.862 72.0327 293.448 72.0327C293.164 72.0327 292.898 72.1084 292.651 72.2597C292.407 72.411 292.21 72.621 292.058 72.8896C291.91 73.1552 291.836 73.4624 291.836 73.8113V78.2578H290.743ZM305.062 78.406C304.377 78.406 303.785 78.2547 303.288 77.9521C302.794 77.6464 302.413 77.2203 302.144 76.6738C301.879 76.1241 301.746 75.4849 301.746 74.7562C301.746 74.0275 301.879 73.3852 302.144 72.8294C302.413 72.2705 302.786 71.8351 303.265 71.5232C303.747 71.2083 304.309 71.0508 304.951 71.0508C305.321 71.0508 305.687 71.1126 306.049 71.2361C306.41 71.3596 306.739 71.5603 307.035 71.8382C307.332 72.113 307.568 72.4774 307.744 72.9313C307.92 73.3852 308.008 73.9441 308.008 74.608V75.0712H302.524V74.1263H306.896C306.896 73.7249 306.816 73.3667 306.655 73.0517C306.498 72.7368 306.273 72.4882 305.979 72.306C305.689 72.1238 305.346 72.0327 304.951 72.0327C304.516 72.0327 304.139 72.1408 303.821 72.357C303.506 72.57 303.263 72.8479 303.094 73.1907C302.924 73.5334 302.839 73.9009 302.839 74.293V74.923C302.839 75.4602 302.932 75.9157 303.117 76.2893C303.305 76.6599 303.566 76.9424 303.9 77.1369C304.233 77.3284 304.621 77.4241 305.062 77.4241C305.349 77.4241 305.609 77.384 305.84 77.3037C306.075 77.2203 306.277 77.0968 306.447 76.9331C306.617 76.7664 306.748 76.5595 306.841 76.3125L307.897 76.6089C307.786 76.9671 307.599 77.2821 307.336 77.5538C307.074 77.8224 306.75 78.0324 306.364 78.1837C305.978 78.3319 305.544 78.406 305.062 78.406ZM310.764 73.9781V78.2578H309.671V71.1434H310.727V72.2551H310.819C310.986 71.8938 311.239 71.6035 311.579 71.3843C311.919 71.162 312.357 71.0508 312.894 71.0508C313.376 71.0508 313.798 71.1496 314.159 71.3472C314.52 71.5418 314.801 71.8382 315.002 72.2365C315.203 72.6318 315.303 73.132 315.303 73.7372V78.2578H314.21V73.8113C314.21 73.2524 314.065 72.817 313.774 72.5052C313.484 72.1902 313.086 72.0327 312.579 72.0327C312.231 72.0327 311.919 72.1084 311.644 72.2597C311.372 72.411 311.158 72.6318 311 72.922C310.843 73.2123 310.764 73.5643 310.764 73.9781ZM320.394 71.1434V72.0698H316.707V71.1434H320.394ZM317.782 69.439H318.875V76.2198C318.875 76.5286 318.92 76.7602 319.009 76.9146C319.102 77.0659 319.219 77.1678 319.361 77.2203C319.507 77.2697 319.659 77.2944 319.82 77.2944C319.94 77.2944 320.039 77.2882 320.116 77.2759C320.194 77.2604 320.255 77.2481 320.302 77.2388L320.524 78.2208C320.45 78.2485 320.347 78.2763 320.214 78.3041C320.081 78.335 319.913 78.3504 319.709 78.3504C319.4 78.3504 319.097 78.2841 318.801 78.1513C318.508 78.0185 318.264 77.8163 318.069 77.5445C317.878 77.2728 317.782 76.93 317.782 76.5163V69.439Z" fill="white" fill-opacity="0.5"/>
<path opacity="0.5" d="M71.9331 70.7871V69.7681H79.0475V70.7871H76.0647V79.2539H74.916V70.7871H71.9331ZM81.7976 79.4206C81.3468 79.4206 80.9377 79.3357 80.5702 79.1659C80.2028 78.993 79.9109 78.7444 79.6948 78.4202C79.4787 78.0929 79.3706 77.6976 79.3706 77.2345C79.3706 76.8269 79.4509 76.4965 79.6114 76.2433C79.772 75.987 79.9866 75.7863 80.2552 75.6411C80.5239 75.496 80.8203 75.3879 81.1445 75.3169C81.4719 75.2428 81.8007 75.1841 82.1311 75.1409C82.5634 75.0853 82.9139 75.0436 83.1825 75.0159C83.4542 74.985 83.6519 74.934 83.7754 74.863C83.902 74.792 83.9653 74.6685 83.9653 74.4925V74.4554C83.9653 73.9984 83.8402 73.6433 83.5901 73.3901C83.3431 73.1369 82.9679 73.0103 82.4646 73.0103C81.9427 73.0103 81.5336 73.1246 81.2372 73.3531C80.9407 73.5816 80.7323 73.8255 80.6119 74.0849L79.5744 73.7143C79.7596 73.282 80.0067 72.9455 80.3155 72.7046C80.6273 72.4607 80.967 72.2908 81.3344 72.1951C81.705 72.0963 82.0693 72.0469 82.4275 72.0469C82.656 72.0469 82.9185 72.0747 83.2149 72.1303C83.5145 72.1828 83.8032 72.2924 84.0811 72.4591C84.3621 72.6259 84.5952 72.8775 84.7805 73.2141C84.9657 73.5507 85.0584 74.0015 85.0584 74.5666V79.2539H83.9653V78.2905H83.9097C83.8356 78.4449 83.7121 78.6101 83.5392 78.7861C83.3662 78.9621 83.1362 79.1119 82.849 79.2354C82.5619 79.3589 82.2114 79.4206 81.7976 79.4206ZM81.9644 78.4387C82.3967 78.4387 82.761 78.3538 83.0575 78.184C83.357 78.0141 83.5824 77.7949 83.7337 77.5263C83.8881 77.2576 83.9653 76.9751 83.9653 76.6787V75.6782C83.919 75.7338 83.8171 75.7847 83.6596 75.831C83.5052 75.8743 83.3261 75.9129 83.1223 75.9468C82.9216 75.9777 82.7255 76.0055 82.5341 76.0302C82.3457 76.0518 82.1929 76.0703 82.0755 76.0858C81.7914 76.1228 81.5259 76.1831 81.2789 76.2664C81.0349 76.3467 80.8373 76.4687 80.686 76.6323C80.5378 76.7929 80.4637 77.0121 80.4637 77.29C80.4637 77.6698 80.6042 77.957 80.8852 78.1515C81.1692 78.343 81.529 78.4387 81.9644 78.4387ZM88.1466 69.7681V79.2539H87.0535V69.7681H88.1466ZM91.1677 76.6601L91.1491 75.3077H91.3715L94.484 72.1395H95.8365L92.5201 75.4929H92.4275L91.1677 76.6601ZM90.1487 79.2539V69.7681H91.2418V79.2539H90.1487ZM94.6693 79.2539L91.8902 75.7338L92.6683 74.9742L96.0588 79.2539H94.6693ZM102.283 73.7329L101.301 74.0108C101.239 73.8471 101.148 73.6881 101.027 73.5337C100.91 73.3762 100.75 73.2465 100.546 73.1446C100.342 73.0427 100.081 72.9918 99.763 72.9918C99.3276 72.9918 98.9648 73.0921 98.6746 73.2928C98.3874 73.4905 98.2438 73.7421 98.2438 74.0478C98.2438 74.3195 98.3426 74.5341 98.5402 74.6916C98.7379 74.8491 99.0467 74.9803 99.4666 75.0853L100.523 75.3447C101.159 75.4991 101.633 75.7353 101.945 76.0534C102.256 76.3683 102.412 76.7744 102.412 77.2715C102.412 77.6791 102.295 78.0435 102.06 78.3646C101.829 78.6857 101.505 78.9389 101.088 79.1242C100.671 79.3095 100.186 79.4021 99.6333 79.4021C98.9077 79.4021 98.3071 79.2446 97.8316 78.9297C97.3561 78.6147 97.055 78.1546 96.9284 77.5494L97.9659 77.29C98.0647 77.6729 98.2515 77.9601 98.5264 78.1515C98.8043 78.343 99.1671 78.4387 99.6148 78.4387C100.124 78.4387 100.529 78.3306 100.828 78.1145C101.131 77.8953 101.282 77.6328 101.282 77.3271C101.282 77.0801 101.196 76.8732 101.023 76.7064C100.85 76.5366 100.584 76.41 100.226 76.3266L99.0405 76.0487C98.3889 75.8943 97.9103 75.655 97.6046 75.3308C97.302 75.0035 97.1507 74.5944 97.1507 74.1034C97.1507 73.702 97.2634 73.3469 97.4888 73.0381C97.7173 72.7293 98.0277 72.4869 98.4198 72.3109C98.8151 72.1349 99.2628 72.0469 99.763 72.0469C100.467 72.0469 101.02 72.2013 101.421 72.5101C101.826 72.8189 102.113 73.2265 102.283 73.7329Z" fill="white"/>
<g opacity="0.5">
<rect x="25.2038" y="94.4811" width="101.491" height="27.3088" rx="13.6544" stroke="white" stroke-width="0.407594"/>
<path d="M39.1916 112.539V103.053H42.3968C43.141 103.053 43.7493 103.188 44.2217 103.456C44.6973 103.722 45.0493 104.081 45.2778 104.535C45.5063 104.989 45.6205 105.496 45.6205 106.055C45.6205 106.614 45.5063 107.121 45.2778 107.578C45.0524 108.035 44.7034 108.4 44.231 108.672C43.7586 108.94 43.1533 109.075 42.4153 109.075H40.118V108.056H42.3783C42.8878 108.056 43.2969 107.968 43.6057 107.792C43.9145 107.616 44.1384 107.378 44.2773 107.078C44.4193 106.776 44.4904 106.434 44.4904 106.055C44.4904 105.675 44.4193 105.335 44.2773 105.036C44.1384 104.736 43.9129 104.501 43.6011 104.332C43.2892 104.159 42.8754 104.072 42.3598 104.072H40.3403V112.539H39.1916ZM47.3227 112.539V105.425H48.3787V106.499H48.4528C48.5825 106.147 48.8172 105.862 49.1569 105.642C49.4965 105.423 49.8794 105.314 50.3055 105.314C50.3858 105.314 50.4862 105.315 50.6066 105.318C50.727 105.321 50.8181 105.326 50.8799 105.332V106.444C50.8428 106.434 50.7579 106.421 50.6251 106.402C50.4954 106.38 50.358 106.37 50.2129 106.37C49.8671 106.37 49.5583 106.442 49.2865 106.587C49.0179 106.729 48.8048 106.927 48.6474 107.18C48.493 107.43 48.4158 107.716 48.4158 108.037V112.539H47.3227ZM54.8493 112.687C54.207 112.687 53.6435 112.534 53.1587 112.229C52.677 111.923 52.3003 111.495 52.0285 110.946C51.7599 110.396 51.6256 109.754 51.6256 109.019C51.6256 108.278 51.7599 107.631 52.0285 107.078C52.3003 106.526 52.677 106.096 53.1587 105.791C53.6435 105.485 54.207 105.332 54.8493 105.332C55.4916 105.332 56.0535 105.485 56.5352 105.791C57.02 106.096 57.3967 106.526 57.6654 107.078C57.9371 107.631 58.073 108.278 58.073 109.019C58.073 109.754 57.9371 110.396 57.6654 110.946C57.3967 111.495 57.02 111.923 56.5352 112.229C56.0535 112.534 55.4916 112.687 54.8493 112.687ZM54.8493 111.705C55.3372 111.705 55.7386 111.58 56.0535 111.33C56.3685 111.08 56.6016 110.751 56.7529 110.344C56.9042 109.936 56.9799 109.494 56.9799 109.019C56.9799 108.543 56.9042 108.1 56.7529 107.69C56.6016 107.279 56.3685 106.947 56.0535 106.694C55.7386 106.441 55.3372 106.314 54.8493 106.314C54.3614 106.314 53.96 106.441 53.645 106.694C53.3301 106.947 53.0969 107.279 52.9456 107.69C52.7943 108.1 52.7187 108.543 52.7187 109.019C52.7187 109.494 52.7943 109.936 52.9456 110.344C53.0969 110.751 53.3301 111.08 53.645 111.33C53.96 111.58 54.3614 111.705 54.8493 111.705ZM62.9097 105.425V106.351H59.0746V105.425H62.9097ZM60.2233 112.539V104.443C60.2233 104.035 60.319 103.696 60.5104 103.424C60.7019 103.152 60.9505 102.948 61.2562 102.812C61.5619 102.677 61.8845 102.609 62.2242 102.609C62.4928 102.609 62.7121 102.63 62.8819 102.673C63.0517 102.717 63.1783 102.757 63.2617 102.794L62.9467 103.739C62.8912 103.72 62.814 103.697 62.7152 103.669C62.6194 103.641 62.4928 103.628 62.3354 103.628C61.9741 103.628 61.7132 103.719 61.5526 103.901C61.3951 104.083 61.3164 104.35 61.3164 104.702V112.539H60.2233ZM67.1315 112.687C66.446 112.687 65.8547 112.536 65.3576 112.233C64.8635 111.928 64.4822 111.502 64.2135 110.955C63.948 110.405 63.8152 109.766 63.8152 109.037C63.8152 108.309 63.948 107.666 64.2135 107.111C64.4822 106.552 64.8558 106.116 65.3344 105.804C65.8161 105.49 66.3781 105.332 67.0204 105.332C67.3909 105.332 67.7568 105.394 68.1181 105.517C68.4794 105.641 68.8082 105.842 69.1047 106.119C69.4011 106.394 69.6373 106.759 69.8133 107.213C69.9893 107.666 70.0773 108.225 70.0773 108.889V109.352H64.5933V108.408H68.9657C68.9657 108.006 68.8854 107.648 68.7249 107.333C68.5674 107.018 68.342 106.769 68.0486 106.587C67.7584 106.405 67.4156 106.314 67.0204 106.314C66.585 106.314 66.2083 106.422 65.8902 106.638C65.5753 106.851 65.3329 107.129 65.163 107.472C64.9932 107.815 64.9083 108.182 64.9083 108.574V109.204C64.9083 109.741 65.0009 110.197 65.1862 110.571C65.3746 110.941 65.6355 111.224 65.969 111.418C66.3025 111.61 66.69 111.705 67.1315 111.705C67.4187 111.705 67.6781 111.665 67.9097 111.585C68.1443 111.502 68.3466 111.378 68.5164 111.214C68.6863 111.048 68.8175 110.841 68.9101 110.594L69.9662 110.89C69.855 111.248 69.6682 111.563 69.4057 111.835C69.1433 112.104 68.819 112.314 68.4331 112.465C68.0471 112.613 67.6132 112.687 67.1315 112.687ZM76.7795 107.018L75.7975 107.296C75.7358 107.132 75.6447 106.973 75.5243 106.819C75.4069 106.661 75.2464 106.532 75.0426 106.43C74.8388 106.328 74.5778 106.277 74.2598 106.277C73.8244 106.277 73.4616 106.377 73.1713 106.578C72.8842 106.776 72.7406 107.027 72.7406 107.333C72.7406 107.605 72.8394 107.819 73.037 107.977C73.2346 108.134 73.5434 108.265 73.9634 108.37L75.0194 108.63C75.6555 108.784 76.1295 109.02 76.4414 109.339C76.7532 109.653 76.9092 110.06 76.9092 110.557C76.9092 110.964 76.7918 111.329 76.5572 111.65C76.3256 111.971 76.0013 112.224 75.5845 112.409C75.1676 112.595 74.6828 112.687 74.1301 112.687C73.4045 112.687 72.8039 112.53 72.3284 112.215C71.8528 111.9 71.5518 111.44 71.4252 110.835L72.4627 110.575C72.5615 110.958 72.7483 111.245 73.0231 111.437C73.301 111.628 73.6638 111.724 74.1116 111.724C74.6211 111.724 75.0256 111.616 75.3251 111.4C75.6277 111.18 75.779 110.918 75.779 110.612C75.779 110.365 75.6926 110.158 75.5196 109.992C75.3467 109.822 75.0812 109.695 74.723 109.612L73.5372 109.334C72.8857 109.179 72.4071 108.94 72.1014 108.616C71.7988 108.289 71.6475 107.88 71.6475 107.389C71.6475 106.987 71.7602 106.632 71.9856 106.323C72.2141 106.014 72.5244 105.772 72.9166 105.596C73.3118 105.42 73.7596 105.332 74.2598 105.332C74.9638 105.332 75.5166 105.486 75.918 105.795C76.3225 106.104 76.6096 106.512 76.7795 107.018ZM78.5546 112.539V105.425H79.6477V112.539H78.5546ZM79.1104 104.239C78.8973 104.239 78.7136 104.166 78.5592 104.021C78.4079 103.876 78.3323 103.702 78.3323 103.498C78.3323 103.294 78.4079 103.12 78.5592 102.974C78.7136 102.829 78.8973 102.757 79.1104 102.757C79.3235 102.757 79.5057 102.829 79.657 102.974C79.8113 103.12 79.8885 103.294 79.8885 103.498C79.8885 103.702 79.8113 103.876 79.657 104.021C79.5057 104.166 79.3235 104.239 79.1104 104.239ZM84.54 112.687C83.8977 112.687 83.3342 112.534 82.8494 112.229C82.3677 111.923 81.991 111.495 81.7192 110.946C81.4506 110.396 81.3163 109.754 81.3163 109.019C81.3163 108.278 81.4506 107.631 81.7192 107.078C81.991 106.526 82.3677 106.096 82.8494 105.791C83.3342 105.485 83.8977 105.332 84.54 105.332C85.1822 105.332 85.7442 105.485 86.2259 105.791C86.7107 106.096 87.0874 106.526 87.3561 107.078C87.6278 107.631 87.7637 108.278 87.7637 109.019C87.7637 109.754 87.6278 110.396 87.3561 110.946C87.0874 111.495 86.7107 111.923 86.2259 112.229C85.7442 112.534 85.1822 112.687 84.54 112.687ZM84.54 111.705C85.0279 111.705 85.4293 111.58 85.7442 111.33C86.0592 111.08 86.2923 110.751 86.4436 110.344C86.5949 109.936 86.6706 109.494 86.6706 109.019C86.6706 108.543 86.5949 108.1 86.4436 107.69C86.2923 107.279 86.0592 106.947 85.7442 106.694C85.4293 106.441 85.0279 106.314 84.54 106.314C84.0521 106.314 83.6507 106.441 83.3357 106.694C83.0208 106.947 82.7876 107.279 82.6363 107.69C82.485 108.1 82.4094 108.543 82.4094 109.019C82.4094 109.494 82.485 109.936 82.6363 110.344C82.7876 110.751 83.0208 111.08 83.3357 111.33C83.6507 111.58 84.0521 111.705 84.54 111.705ZM90.5254 108.259V112.539H89.4323V105.425H90.4883V106.536H90.5809C90.7477 106.175 91.0009 105.885 91.3405 105.666C91.6802 105.443 92.1187 105.332 92.656 105.332C93.1377 105.332 93.5592 105.431 93.9204 105.628C94.2817 105.823 94.5627 106.119 94.7634 106.518C94.9641 106.913 95.0645 107.413 95.0645 108.018V112.539H93.9714V108.093C93.9714 107.534 93.8263 107.098 93.536 106.786C93.2457 106.471 92.8474 106.314 92.341 106.314C91.9921 106.314 91.6802 106.39 91.4054 106.541C91.1337 106.692 90.9191 106.913 90.7616 107.203C90.6041 107.494 90.5254 107.846 90.5254 108.259ZM99.1555 112.706C98.7047 112.706 98.2955 112.621 97.9281 112.451C97.5606 112.278 97.2688 112.03 97.0527 111.705C96.8365 111.378 96.7284 110.983 96.7284 110.52C96.7284 110.112 96.8087 109.782 96.9693 109.528C97.1299 109.272 97.3445 109.071 97.6131 108.926C97.8817 108.781 98.1782 108.673 98.5024 108.602C98.8297 108.528 99.1586 108.469 99.489 108.426C99.9213 108.37 100.272 108.329 100.54 108.301C100.812 108.27 101.01 108.219 101.133 108.148C101.26 108.077 101.323 107.954 101.323 107.778V107.741C101.323 107.284 101.198 106.928 100.948 106.675C100.701 106.422 100.326 106.295 99.8224 106.295C99.3006 106.295 98.8915 106.41 98.595 106.638C98.2986 106.867 98.0902 107.111 97.9697 107.37L96.9322 106.999C97.1175 106.567 97.3645 106.231 97.6733 105.99C97.9852 105.746 98.3248 105.576 98.6923 105.48C99.0628 105.381 99.4272 105.332 99.7854 105.332C100.014 105.332 100.276 105.36 100.573 105.415C100.872 105.468 101.161 105.578 101.439 105.744C101.72 105.911 101.953 106.163 102.138 106.499C102.324 106.836 102.416 107.287 102.416 107.852V112.539H101.323V111.576H101.268C101.193 111.73 101.07 111.895 100.897 112.071C100.724 112.247 100.494 112.397 100.207 112.521C99.9197 112.644 99.5692 112.706 99.1555 112.706ZM99.3222 111.724C99.7545 111.724 100.119 111.639 100.415 111.469C100.715 111.299 100.94 111.08 101.092 110.811C101.246 110.543 101.323 110.26 101.323 109.964V108.963C101.277 109.019 101.175 109.07 101.017 109.116C100.863 109.159 100.684 109.198 100.48 109.232C100.279 109.263 100.083 109.291 99.8919 109.315C99.7036 109.337 99.5507 109.356 99.4334 109.371C99.1493 109.408 98.8837 109.468 98.6367 109.552C98.3928 109.632 98.1952 109.754 98.0439 109.917C97.8956 110.078 97.8215 110.297 97.8215 110.575C97.8215 110.955 97.962 111.242 98.243 111.437C98.5271 111.628 98.8868 111.724 99.3222 111.724ZM105.504 103.053V112.539H104.411V103.053H105.504ZM112.546 107.018L111.564 107.296C111.502 107.132 111.411 106.973 111.291 106.819C111.173 106.661 111.013 106.532 110.809 106.43C110.605 106.328 110.344 106.277 110.026 106.277C109.591 106.277 109.228 106.377 108.938 106.578C108.651 106.776 108.507 107.027 108.507 107.333C108.507 107.605 108.606 107.819 108.803 107.977C109.001 108.134 109.31 108.265 109.73 108.37L110.786 108.63C111.422 108.784 111.896 109.02 112.208 109.339C112.52 109.653 112.676 110.06 112.676 110.557C112.676 110.964 112.558 111.329 112.324 111.65C112.092 111.971 111.768 112.224 111.351 112.409C110.934 112.595 110.449 112.687 109.897 112.687C109.171 112.687 108.57 112.53 108.095 112.215C107.619 111.9 107.318 111.44 107.192 110.835L108.229 110.575C108.328 110.958 108.515 111.245 108.79 111.437C109.067 111.628 109.43 111.724 109.878 111.724C110.387 111.724 110.792 111.616 111.092 111.4C111.394 111.18 111.545 110.918 111.545 110.612C111.545 110.365 111.459 110.158 111.286 109.992C111.113 109.822 110.848 109.695 110.489 109.612L109.304 109.334C108.652 109.179 108.173 108.94 107.868 108.616C107.565 108.289 107.414 107.88 107.414 107.389C107.414 106.987 107.527 106.632 107.752 106.323C107.981 106.014 108.291 105.772 108.683 105.596C109.078 105.42 109.526 105.332 110.026 105.332C110.73 105.332 111.283 105.486 111.684 105.795C112.089 106.104 112.376 106.512 112.546 107.018Z" fill="white"/>
</g>
<path opacity="0.5" d="M235.199 112.246V102.76H240.924V103.779H236.348V106.984H240.627V108.003H236.348V111.227H240.998V112.246H235.199ZM245.532 112.394C244.94 112.394 244.416 112.245 243.962 111.945C243.508 111.642 243.153 111.216 242.897 110.667C242.641 110.114 242.513 109.461 242.513 108.707C242.513 107.96 242.641 107.312 242.897 106.762C243.153 106.212 243.51 105.788 243.967 105.488C244.424 105.189 244.952 105.039 245.551 105.039C246.014 105.039 246.38 105.116 246.649 105.271C246.92 105.422 247.127 105.595 247.269 105.789C247.414 105.981 247.527 106.138 247.607 106.262H247.7V102.76H248.793V112.246H247.737V111.153H247.607C247.527 111.283 247.413 111.446 247.265 111.644C247.116 111.838 246.905 112.013 246.63 112.167C246.355 112.319 245.989 112.394 245.532 112.394ZM245.681 111.412C246.119 111.412 246.49 111.298 246.792 111.07C247.095 110.838 247.325 110.518 247.482 110.111C247.64 109.7 247.719 109.226 247.719 108.689C247.719 108.158 247.641 107.693 247.487 107.295C247.333 106.893 247.104 106.581 246.802 106.359C246.499 106.134 246.125 106.021 245.681 106.021C245.217 106.021 244.831 106.14 244.523 106.378C244.217 106.612 243.987 106.932 243.833 107.336C243.681 107.738 243.606 108.189 243.606 108.689C243.606 109.195 243.683 109.655 243.837 110.069C243.995 110.48 244.226 110.807 244.532 111.051C244.841 111.292 245.224 111.412 245.681 111.412ZM255.43 109.337V105.132H256.524V112.246H255.43V111.042H255.356C255.19 111.403 254.93 111.71 254.578 111.964C254.226 112.214 253.782 112.339 253.244 112.339C252.8 112.339 252.404 112.241 252.059 112.047C251.713 111.849 251.441 111.553 251.243 111.158C251.046 110.759 250.947 110.258 250.947 109.652V105.132H252.04V109.578C252.04 110.097 252.185 110.511 252.475 110.82C252.769 111.128 253.142 111.283 253.596 111.283C253.868 111.283 254.144 111.213 254.425 111.074C254.709 110.935 254.947 110.722 255.139 110.435C255.333 110.148 255.43 109.782 255.43 109.337ZM261.416 112.394C260.749 112.394 260.175 112.237 259.693 111.922C259.211 111.607 258.841 111.173 258.581 110.62C258.322 110.068 258.192 109.436 258.192 108.726C258.192 108.003 258.325 107.366 258.59 106.813C258.859 106.257 259.233 105.823 259.711 105.512C260.193 105.197 260.755 105.039 261.397 105.039C261.898 105.039 262.348 105.132 262.75 105.317C263.151 105.502 263.48 105.762 263.736 106.095C263.993 106.429 264.152 106.818 264.213 107.262H263.12C263.037 106.938 262.852 106.651 262.565 106.401C262.28 106.148 261.898 106.021 261.416 106.021C260.99 106.021 260.616 106.132 260.295 106.355C259.977 106.574 259.728 106.884 259.549 107.285C259.373 107.684 259.285 108.152 259.285 108.689C259.285 109.239 259.372 109.717 259.545 110.125C259.721 110.532 259.968 110.849 260.286 111.074C260.607 111.3 260.984 111.412 261.416 111.412C261.7 111.412 261.958 111.363 262.189 111.264C262.421 111.165 262.617 111.023 262.778 110.838C262.938 110.653 263.052 110.43 263.12 110.171H264.213C264.152 110.591 263.999 110.969 263.755 111.306C263.514 111.639 263.194 111.905 262.796 112.103C262.401 112.297 261.941 112.394 261.416 112.394ZM267.905 112.413C267.454 112.413 267.045 112.328 266.678 112.158C266.31 111.985 266.018 111.737 265.802 111.412C265.586 111.085 265.478 110.69 265.478 110.227C265.478 109.819 265.558 109.489 265.719 109.235C265.879 108.979 266.094 108.778 266.363 108.633C266.631 108.488 266.928 108.38 267.252 108.309C267.579 108.235 267.908 108.176 268.238 108.133C268.671 108.078 269.021 108.036 269.29 108.008C269.562 107.977 269.759 107.926 269.883 107.855C270.009 107.784 270.073 107.661 270.073 107.485V107.448C270.073 106.991 269.948 106.635 269.697 106.382C269.45 106.129 269.075 106.002 268.572 106.002C268.05 106.002 267.641 106.117 267.344 106.345C267.048 106.574 266.84 106.818 266.719 107.077L265.682 106.707C265.867 106.274 266.114 105.938 266.423 105.697C266.735 105.453 267.074 105.283 267.442 105.187C267.812 105.088 268.177 105.039 268.535 105.039C268.763 105.039 269.026 105.067 269.322 105.122C269.622 105.175 269.91 105.285 270.188 105.451C270.469 105.618 270.703 105.87 270.888 106.206C271.073 106.543 271.166 106.994 271.166 107.559V112.246H270.073V111.283H270.017C269.943 111.437 269.819 111.602 269.646 111.778C269.474 111.954 269.244 112.104 268.956 112.228C268.669 112.351 268.319 112.413 267.905 112.413ZM268.072 111.431C268.504 111.431 268.868 111.346 269.165 111.176C269.464 111.006 269.69 110.787 269.841 110.518C269.995 110.25 270.073 109.967 270.073 109.671V108.67C270.026 108.726 269.924 108.777 269.767 108.823C269.613 108.866 269.433 108.905 269.23 108.939C269.029 108.97 268.833 108.998 268.641 109.022C268.453 109.044 268.3 109.063 268.183 109.078C267.899 109.115 267.633 109.175 267.386 109.259C267.142 109.339 266.945 109.461 266.793 109.625C266.645 109.785 266.571 110.004 266.571 110.282C266.571 110.662 266.711 110.949 266.992 111.144C267.277 111.335 267.636 111.431 268.072 111.431ZM276.255 105.132V106.058H272.568V105.132H276.255ZM273.643 103.427H274.736V110.208C274.736 110.517 274.78 110.748 274.87 110.903C274.963 111.054 275.08 111.156 275.222 111.209C275.367 111.258 275.52 111.283 275.68 111.283C275.801 111.283 275.9 111.277 275.977 111.264C276.054 111.249 276.116 111.236 276.162 111.227L276.385 112.209C276.31 112.237 276.207 112.265 276.074 112.292C275.941 112.323 275.773 112.339 275.569 112.339C275.261 112.339 274.958 112.272 274.662 112.14C274.368 112.007 274.124 111.805 273.93 111.533C273.738 111.261 273.643 110.918 273.643 110.505V103.427ZM277.899 112.246V105.132H278.992V112.246H277.899ZM278.455 103.946C278.242 103.946 278.058 103.873 277.904 103.728C277.752 103.583 277.677 103.409 277.677 103.205C277.677 103.001 277.752 102.827 277.904 102.682C278.058 102.536 278.242 102.464 278.455 102.464C278.668 102.464 278.85 102.536 279.001 102.682C279.156 102.827 279.233 103.001 279.233 103.205C279.233 103.409 279.156 103.583 279.001 103.728C278.85 103.873 278.668 103.946 278.455 103.946ZM283.884 112.394C283.242 112.394 282.679 112.241 282.194 111.936C281.712 111.63 281.335 111.202 281.064 110.653C280.795 110.103 280.661 109.461 280.661 108.726C280.661 107.985 280.795 107.338 281.064 106.785C281.335 106.233 281.712 105.803 282.194 105.498C282.679 105.192 283.242 105.039 283.884 105.039C284.527 105.039 285.089 105.192 285.57 105.498C286.055 105.803 286.432 106.233 286.701 106.785C286.972 107.338 287.108 107.985 287.108 108.726C287.108 109.461 286.972 110.103 286.701 110.653C286.432 111.202 286.055 111.63 285.57 111.936C285.089 112.241 284.527 112.394 283.884 112.394ZM283.884 111.412C284.372 111.412 284.774 111.287 285.089 111.037C285.404 110.787 285.637 110.458 285.788 110.051C285.939 109.643 286.015 109.201 286.015 108.726C286.015 108.25 285.939 107.807 285.788 107.397C285.637 106.986 285.404 106.654 285.089 106.401C284.774 106.148 284.372 106.021 283.884 106.021C283.397 106.021 282.995 106.148 282.68 106.401C282.365 106.654 282.132 106.986 281.981 107.397C281.83 107.807 281.754 108.25 281.754 108.726C281.754 109.201 281.83 109.643 281.981 110.051C282.132 110.458 282.365 110.787 282.68 111.037C282.995 111.287 283.397 111.412 283.884 111.412ZM289.87 107.966V112.246H288.777V105.132H289.833V106.243H289.925C290.092 105.882 290.345 105.592 290.685 105.373C291.025 105.15 291.463 105.039 292 105.039C292.482 105.039 292.904 105.138 293.265 105.336C293.626 105.53 293.907 105.826 294.108 106.225C294.309 106.62 294.409 107.12 294.409 107.726V112.246H293.316V107.8C293.316 107.241 293.171 106.805 292.881 106.493C292.59 106.178 292.192 106.021 291.686 106.021C291.337 106.021 291.025 106.097 290.75 106.248C290.478 106.399 290.264 106.62 290.106 106.91C289.949 107.201 289.87 107.553 289.87 107.966ZM298.5 112.413C298.049 112.413 297.64 112.328 297.273 112.158C296.905 111.985 296.613 111.737 296.397 111.412C296.181 111.085 296.073 110.69 296.073 110.227C296.073 109.819 296.153 109.489 296.314 109.235C296.474 108.979 296.689 108.778 296.958 108.633C297.226 108.488 297.523 108.38 297.847 108.309C298.174 108.235 298.503 108.176 298.833 108.133C299.266 108.078 299.616 108.036 299.885 108.008C300.157 107.977 300.354 107.926 300.478 107.855C300.604 107.784 300.668 107.661 300.668 107.485V107.448C300.668 106.991 300.543 106.635 300.292 106.382C300.045 106.129 299.67 106.002 299.167 106.002C298.645 106.002 298.236 106.117 297.94 106.345C297.643 106.574 297.435 106.818 297.314 107.077L296.277 106.707C296.462 106.274 296.709 105.938 297.018 105.697C297.33 105.453 297.669 105.283 298.037 105.187C298.407 105.088 298.772 105.039 299.13 105.039C299.358 105.039 299.621 105.067 299.917 105.122C300.217 105.175 300.506 105.285 300.783 105.451C301.064 105.618 301.298 105.87 301.483 106.206C301.668 106.543 301.761 106.994 301.761 107.559V112.246H300.668V111.283H300.612C300.538 111.437 300.414 111.602 300.242 111.778C300.069 111.954 299.839 112.104 299.551 112.228C299.264 112.351 298.914 112.413 298.5 112.413ZM298.667 111.431C299.099 111.431 299.463 111.346 299.76 111.176C300.059 111.006 300.285 110.787 300.436 110.518C300.59 110.25 300.668 109.967 300.668 109.671V108.67C300.621 108.726 300.519 108.777 300.362 108.823C300.208 108.866 300.028 108.905 299.825 108.939C299.624 108.97 299.428 108.998 299.236 109.022C299.048 109.044 298.895 109.063 298.778 109.078C298.494 109.115 298.228 109.175 297.981 109.259C297.737 109.339 297.54 109.461 297.388 109.625C297.24 109.785 297.166 110.004 297.166 110.282C297.166 110.662 297.307 110.949 297.588 111.144C297.872 111.335 298.231 111.431 298.667 111.431ZM304.849 102.76V112.246H303.756V102.76H304.849ZM311.89 106.725L310.908 107.003C310.847 106.839 310.756 106.68 310.635 106.526C310.518 106.368 310.357 106.239 310.153 106.137C309.95 106.035 309.689 105.984 309.371 105.984C308.935 105.984 308.572 106.084 308.282 106.285C307.995 106.483 307.851 106.734 307.851 107.04C307.851 107.312 307.95 107.526 308.148 107.684C308.346 107.841 308.654 107.973 309.074 108.078L310.13 108.337C310.766 108.491 311.24 108.728 311.552 109.046C311.864 109.361 312.02 109.767 312.02 110.264C312.02 110.671 311.903 111.036 311.668 111.357C311.436 111.678 311.112 111.931 310.695 112.116C310.279 112.302 309.794 112.394 309.241 112.394C308.515 112.394 307.915 112.237 307.439 111.922C306.964 111.607 306.663 111.147 306.536 110.542L307.574 110.282C307.672 110.665 307.859 110.952 308.134 111.144C308.412 111.335 308.775 111.431 309.222 111.431C309.732 111.431 310.136 111.323 310.436 111.107C310.739 110.887 310.89 110.625 310.89 110.319C310.89 110.072 310.803 109.865 310.631 109.699C310.458 109.529 310.192 109.402 309.834 109.319L308.648 109.041C307.997 108.887 307.518 108.647 307.212 108.323C306.91 107.996 306.758 107.587 306.758 107.096C306.758 106.694 306.871 106.339 307.097 106.03C307.325 105.721 307.635 105.479 308.027 105.303C308.423 105.127 308.87 105.039 309.371 105.039C310.075 105.039 310.627 105.193 311.029 105.502C311.433 105.811 311.721 106.219 311.89 106.725Z" fill="url(#paint3_linear_32_2)"/>
<defs>
<filter id="filter0_d_32_2" x="124.104" y="31.9375" width="86.7905" height="97.125" filterUnits="userSpaceOnUse" color-interpolation-filters="sRGB">
<feFlood flood-opacity="0" result="BackgroundImageFix"/>
<feColorMatrix in="SourceAlpha" type="matrix" values="0 0 0 0 0 0 0 0 0 0 0 0 0 0 0 0 0 0 127 0" result="hardAlpha"/>
<feOffset dy="3"/>
<feGaussianBlur stdDeviation="5"/>
<feComposite in2="hardAlpha" operator="out"/>
<feColorMatrix type="matrix" values="0 0 0 0 0.0666667 0 0 0 0 0.0352941 0 0 0 0 0.129412 0 0 0 0.25 0"/>
<feBlend mode="normal" in2="BackgroundImageFix" result="effect1_dropShadow_32_2"/>
<feBlend mode="normal" in="SourceGraphic" in2="effect1_dropShadow_32_2" result="shape"/>
</filter>
<linearGradient id="paint0_linear_32_2" x1="321.001" y1="109.016" x2="0.00012207" y2="109.016" gradientUnits="userSpaceOnUse">
<stop stop-color="white" stop-opacity="0.04"/>
</linearGradient>
<linearGradient id="paint1_linear_32_2" x1="167.5" y1="40" x2="152.387" y2="106.493" gradientUnits="userSpaceOnUse">
<stop stop-color="#2E68FF"/>
<stop offset="1" stop-color="#6691FF"/>
</linearGradient>
<linearGradient id="paint2_linear_32_2" x1="168" y1="68" x2="164.373" y2="83.9584" gradientUnits="userSpaceOnUse">
<stop stop-color="#2E68FF"/>
<stop offset="1" stop-color="#6691FF"/>
</linearGradient>
<linearGradient id="paint3_linear_32_2" x1="273.424" y1="97.2461" x2="273.424" y2="139.996" gradientUnits="userSpaceOnUse">
<stop stop-color="white"/>
<stop offset="1" stop-color="white" stop-opacity="0.67"/>
</linearGradient>
</defs>
</svg>