<?xml version="1.0" encoding="UTF-8"?>
<svg id="Capa_2" data-name="Capa 2" xmlns="http://www.w3.org/2000/svg" xmlns:xlink="http://www.w3.org/1999/xlink" viewBox="0 0 1011.39 473.59">
  <defs>
    <style>
      .cls-1 {
        fill: url(#Degradado_sin_nombre_652-2);
      }

      .cls-1, .cls-2, .cls-3, .cls-4, .cls-5, .cls-6, .cls-7, .cls-8, .cls-9, .cls-10, .cls-11, .cls-12, .cls-13, .cls-14, .cls-15, .cls-16, .cls-17, .cls-18, .cls-19, .cls-20, .cls-21, .cls-22 {
        stroke-width: 0px;
      }

      .cls-2 {
        fill: #db7a2d;
      }

      .cls-3 {
        fill: url(#Degradado_sin_nombre_120);
      }

      .cls-4 {
        fill: url(#Degradado_sin_nombre_1056);
      }

      .cls-5 {
        fill: #29abe2;
      }

      .cls-6 {
        fill: url(#Degradado_sin_nombre_679);
      }

      .cls-7 {
        fill: #1b1464;
      }

      .cls-8 {
        fill: url(#Degradado_sin_nombre_924);
      }

      .cls-23 {
        stroke: #29abe2;
        stroke-linecap: round;
        stroke-linejoin: round;
        stroke-width: 9.02px;
      }

      .cls-23, .cls-24 {
        fill: none;
      }

      .cls-9 {
        fill: url(#Degradado_sin_nombre_928);
      }

      .cls-10 {
        fill: url(#Degradado_sin_nombre_630);
      }

      .cls-11 {
        fill: url(#Degradado_sin_nombre_531);
      }

      .cls-12 {
        fill: #201f34;
      }

      .cls-13 {
        fill: #363548;
      }

      .cls-14 {
        fill: url(#Degradado_sin_nombre_791);
      }

      .cls-24 {
        stroke: #2e3192;
        stroke-width: 1.13px;
      }

      .cls-15 {
        fill: url(#Degradado_sin_nombre_652);
      }

      .cls-16 {
        fill: #bcbcc2;
      }

      .cls-17 {
        fill: url(#Degradado_sin_nombre_577);
      }

      .cls-18 {
        fill: #337ff5;
      }

      .cls-19 {
        fill: url(#Degradado_sin_nombre_531-2);
      }

      .cls-20 {
        fill: url(#Degradado_sin_nombre_635);
      }

      .cls-21 {
        fill: url(#Degradado_sin_nombre_967);
      }

      .cls-22 {
        fill: url(#Degradado_sin_nombre_1044);
      }
    </style>
    <linearGradient id="Degradado_sin_nombre_1056" data-name="Degradado sin nombre 1056" x1="505.69" y1="176.33" x2="505.69" y2="299.96" gradientUnits="userSpaceOnUse">
      <stop offset="0" stop-color="#af533c"/>
      <stop offset=".03" stop-color="#b65a3b"/>
      <stop offset=".06" stop-color="#c96e38"/>
      <stop offset=".1" stop-color="#dd8436"/>
      <stop offset=".21" stop-color="#f1df4f"/>
      <stop offset=".41" stop-color="#e89419"/>
      <stop offset=".51" stop-color="#e78d22"/>
      <stop offset=".62" stop-color="#e68331"/>
      <stop offset=".71" stop-color="#cc722e"/>
      <stop offset=".9" stop-color="#8d4727"/>
      <stop offset=".96" stop-color="#793a25"/>
    </linearGradient>
    <linearGradient id="Degradado_sin_nombre_679" data-name="Degradado sin nombre 679" x1="505.3" y1="51.52" x2="505.3" y2="427.24" gradientUnits="userSpaceOnUse">
      <stop offset=".14" stop-color="#29283c"/>
      <stop offset=".21" stop-color="#7d7d89"/>
      <stop offset=".27" stop-color="#c3c3c8"/>
      <stop offset=".31" stop-color="#eeeeef"/>
      <stop offset=".34" stop-color="#fff"/>
      <stop offset=".38" stop-color="#d0d0d5"/>
      <stop offset=".43" stop-color="#aaaab2"/>
      <stop offset=".47" stop-color="#92929c"/>
      <stop offset=".49" stop-color="#8a8a95"/>
      <stop offset=".49" stop-color="#8a8a95"/>
      <stop offset=".57" stop-color="#a5a5ad"/>
      <stop offset=".63" stop-color="#b6b6bc"/>
      <stop offset=".68" stop-color="#bcbcc2"/>
      <stop offset=".73" stop-color="#9a9aa3"/>
      <stop offset=".85" stop-color="#454455"/>
      <stop offset=".89" stop-color="#29283c"/>
    </linearGradient>
    <radialGradient id="Degradado_sin_nombre_1044" data-name="Degradado sin nombre 1044" cx="505.3" cy="239.38" fx="505.3" fy="239.38" r="581.41" gradientTransform="translate(0 -19.2) scale(1 1.08)" gradientUnits="userSpaceOnUse">
      <stop offset=".8" stop-color="#201f34" stop-opacity="0"/>
      <stop offset=".82" stop-color="#1e1e32" stop-opacity=".14"/>
      <stop offset=".85" stop-color="#1b1d2c" stop-opacity=".55"/>
      <stop offset=".88" stop-color="#181c26"/>
    </radialGradient>
    <linearGradient id="Degradado_sin_nombre_928" data-name="Degradado sin nombre 928" x1="504.35" y1="50.23" x2="504.35" y2="425.95" gradientUnits="userSpaceOnUse">
      <stop offset="0" stop-color="#29283c"/>
      <stop offset="0" stop-color="#343346"/>
      <stop offset=".03" stop-color="#636271"/>
      <stop offset=".05" stop-color="#8d8c97"/>
      <stop offset=".08" stop-color="#b0b0b7"/>
      <stop offset=".1" stop-color="#cdccd1"/>
      <stop offset=".13" stop-color="#e3e3e5"/>
      <stop offset=".16" stop-color="#f2f2f3"/>
      <stop offset=".2" stop-color="#fcfcfc"/>
      <stop offset=".25" stop-color="#fff"/>
      <stop offset=".27" stop-color="#e4e4e6"/>
      <stop offset=".3" stop-color="#c3c3c9"/>
      <stop offset=".34" stop-color="#aaaab2"/>
      <stop offset=".37" stop-color="#9898a1"/>
      <stop offset=".41" stop-color="#8d8d98"/>
      <stop offset=".45" stop-color="#8a8a95"/>
      <stop offset=".7" stop-color="#bcbcc2"/>
      <stop offset=".74" stop-color="#b2b1b8"/>
      <stop offset=".8" stop-color="#9797a0"/>
      <stop offset=".88" stop-color="#6b6b78"/>
      <stop offset=".98" stop-color="#2f2f42"/>
      <stop offset=".99" stop-color="#29283c"/>
    </linearGradient>
    <radialGradient id="Degradado_sin_nombre_967" data-name="Degradado sin nombre 967" cx="504.35" cy="239.38" fx="504.35" fy="239.38" r="445.23" gradientTransform="translate(0 -6.39) scale(1 1.03)" gradientUnits="userSpaceOnUse">
      <stop offset=".23" stop-color="#363548" stop-opacity="0"/>
      <stop offset=".81" stop-color="#363548" stop-opacity="0"/>
      <stop offset=".87" stop-color="#323244" stop-opacity=".11"/>
      <stop offset=".92" stop-color="#292a38" stop-opacity=".43"/>
      <stop offset=".98" stop-color="#191c24" stop-opacity=".96"/>
      <stop offset=".98" stop-color="#181c23"/>
    </radialGradient>
    <linearGradient id="Degradado_sin_nombre_635" data-name="Degradado sin nombre 635" x1="504.35" y1="44.75" x2="504.35" y2="434" gradientUnits="userSpaceOnUse">
      <stop offset=".16" stop-color="#000"/>
      <stop offset=".78" stop-color="#000"/>
      <stop offset="1" stop-color="#363548"/>
    </linearGradient>
    <linearGradient id="Degradado_sin_nombre_652" data-name="Degradado sin nombre 652" x1="100.65" y1="44.75" x2="100.65" y2="434" gradientUnits="userSpaceOnUse">
      <stop offset="0" stop-color="#363548"/>
      <stop offset=".03" stop-color="#474657"/>
      <stop offset=".08" stop-color="#626270"/>
      <stop offset=".12" stop-color="#73737f"/>
      <stop offset=".15" stop-color="#797985"/>
      <stop offset=".21" stop-color="#72727f"/>
      <stop offset=".3" stop-color="#60606e"/>
      <stop offset=".4" stop-color="#434253"/>
      <stop offset=".44" stop-color="#353446"/>
      <stop offset=".65" stop-color="#000"/>
      <stop offset=".92" stop-color="#000"/>
    </linearGradient>
    <linearGradient id="Degradado_sin_nombre_652-2" data-name="Degradado sin nombre 652" x1="908.05" y1="44.75" x2="908.05" y2="434" xlink:href="#Degradado_sin_nombre_652"/>
    <linearGradient id="Degradado_sin_nombre_630" data-name="Degradado sin nombre 630" x1="504.83" y1="20.27" x2="504.83" y2="447.53" gradientUnits="userSpaceOnUse">
      <stop offset=".13" stop-color="#000"/>
      <stop offset=".78" stop-color="#000"/>
      <stop offset="1" stop-color="#363548"/>
    </linearGradient>
    <linearGradient id="Degradado_sin_nombre_577" data-name="Degradado sin nombre 577" x1="504.96" y1="24.09" x2="504.96" y2="480.21" gradientUnits="userSpaceOnUse">
      <stop offset="0" stop-color="#353446"/>
      <stop offset=".12" stop-color="#bcbcc2"/>
      <stop offset=".15" stop-color="#b0b0b7"/>
      <stop offset=".21" stop-color="#91919b"/>
      <stop offset=".24" stop-color="#797985"/>
      <stop offset=".34" stop-color="#605f6e"/>
      <stop offset=".45" stop-color="#484859"/>
      <stop offset=".55" stop-color="#3a394c"/>
      <stop offset=".64" stop-color="#363548"/>
      <stop offset=".68" stop-color="#2c2b3b"/>
      <stop offset=".82" stop-color="#14141b"/>
      <stop offset=".93" stop-color="#050507"/>
      <stop offset="1" stop-color="#000"/>
    </linearGradient>
    <linearGradient id="Degradado_sin_nombre_120" data-name="Degradado sin nombre 120" x1="504.96" y1="51.7" x2="504.96" y2="427.24" gradientUnits="userSpaceOnUse">
      <stop offset=".02" stop-color="#1f57da"/>
      <stop offset=".07" stop-color="#3884db"/>
      <stop offset=".15" stop-color="#65d5dd"/>
      <stop offset=".19" stop-color="#77f5df"/>
      <stop offset=".23" stop-color="#65e1de"/>
      <stop offset=".29" stop-color="#39b0dc"/>
      <stop offset=".3" stop-color="#34aadc"/>
      <stop offset=".39" stop-color="#3398e6"/>
      <stop offset=".52" stop-color="#337ff5"/>
      <stop offset=".58" stop-color="#3481f4"/>
      <stop offset=".61" stop-color="#3989f3"/>
      <stop offset=".63" stop-color="#4197f0"/>
      <stop offset=".65" stop-color="#4cabec"/>
      <stop offset=".67" stop-color="#5bc4e7"/>
      <stop offset=".69" stop-color="#6ce3e2"/>
      <stop offset=".7" stop-color="#76f4df"/>
      <stop offset=".75" stop-color="#5cc6dd"/>
      <stop offset=".85" stop-color="#1f57da"/>
      <stop offset=".85" stop-color="#1f53d5"/>
      <stop offset=".89" stop-color="#1f3bb5"/>
      <stop offset=".92" stop-color="#1f2a9d"/>
      <stop offset=".95" stop-color="#1f1f8f"/>
      <stop offset=".98" stop-color="#1f1c8b"/>
    </linearGradient>
    <linearGradient id="Degradado_sin_nombre_531" data-name="Degradado sin nombre 531" x1="206.36" y1="191.22" x2="206.36" y2="287.53" gradientUnits="userSpaceOnUse">
      <stop offset="0" stop-color="#9f3a38"/>
      <stop offset=".26" stop-color="#dd8436"/>
      <stop offset=".31" stop-color="#e09032"/>
      <stop offset=".4" stop-color="#e7af28"/>
      <stop offset=".4" stop-color="#e8b028"/>
      <stop offset=".47" stop-color="#e7a929"/>
      <stop offset=".57" stop-color="#e6972c"/>
      <stop offset=".66" stop-color="#e68331"/>
      <stop offset=".74" stop-color="#d47132"/>
      <stop offset=".9" stop-color="#a84437"/>
      <stop offset=".93" stop-color="#9f3a38"/>
    </linearGradient>
    <linearGradient id="Degradado_sin_nombre_531-2" data-name="Degradado sin nombre 531" x1="804.24" y1="191.22" x2="804.24" y2="287.53" xlink:href="#Degradado_sin_nombre_531"/>
    <radialGradient id="Degradado_sin_nombre_924" data-name="Degradado sin nombre 924" cx="505.16" cy="239.38" fx="505.16" fy="239.38" r="355.78" gradientTransform="translate(.13 152.82) rotate(.09) scale(1 .36)" gradientUnits="userSpaceOnUse">
      <stop offset="0" stop-color="#242b7d"/>
      <stop offset=".08" stop-color="#2441a7"/>
      <stop offset=".14" stop-color="#2750b9"/>
      <stop offset=".27" stop-color="#2f74e4"/>
      <stop offset=".34" stop-color="#3382f5"/>
      <stop offset=".37" stop-color="#2f77ef"/>
      <stop offset=".45" stop-color="#295fe5"/>
      <stop offset=".49" stop-color="#2757e1"/>
      <stop offset=".54" stop-color="#2b6be8"/>
      <stop offset=".62" stop-color="#3085f1"/>
      <stop offset=".67" stop-color="#338ff5"/>
      <stop offset=".72" stop-color="#2d6dd5"/>
      <stop offset=".8" stop-color="#242e9b"/>
      <stop offset=".81" stop-color="#1f2a8f"/>
      <stop offset=".84" stop-color="#112170"/>
      <stop offset=".87" stop-color="#071a59"/>
      <stop offset=".9" stop-color="#02164b"/>
      <stop offset=".92" stop-color="#001547"/>
    </radialGradient>
    <linearGradient id="Degradado_sin_nombre_791" data-name="Degradado sin nombre 791" x1="505.16" y1="152.03" x2="505.16" y2="342.81" gradientUnits="userSpaceOnUse">
      <stop offset=".01" stop-color="#0efff5"/>
      <stop offset=".17" stop-color="#1de0f5"/>
      <stop offset=".36" stop-color="#33b4f5"/>
      <stop offset=".61" stop-color="#2ebdf5"/>
      <stop offset=".79" stop-color="#1a65be"/>
      <stop offset=".88" stop-color="#1341a7"/>
      <stop offset="1" stop-color="#001578"/>
    </linearGradient>
  </defs>
  <g id="Capa_1-2" data-name="Capa 1">
    <g>
      <g>
        <g>
          <g>
            <g>
              <path class="cls-23" d="M14.66,239.33c0,21.99.79,42.54,2.17,60-9.65-2.37-16.83-11.07-16.83-21.45v-80.05c0-10.47,7.31-19.24,17.1-21.49-1.53,18.09-2.44,39.74-2.44,63Z"/>
              <path class="cls-23" d="M14.66,239.33c0,21.99.79,42.54,2.17,60-9.65-2.37-16.83-11.07-16.83-21.45v-80.05c0-10.47,7.31-19.24,17.1-21.49-1.53,18.09-2.44,39.74-2.44,63Z"/>
            </g>
            <g>
              <path class="cls-23" d="M1011.39,198.28v80.05c0,10.69-7.58,19.6-17.68,21.63,1.42-17.59,2.23-38.37,2.23-60.63s-.88-44.66-2.41-62.7c10.19,1.96,17.86,10.92,17.86,21.65Z"/>
              <path class="cls-23" d="M1011.39,198.28v80.05c0,10.69-7.58,19.6-17.68,21.63,1.42-17.59,2.23-38.37,2.23-60.63s-.88-44.66-2.41-62.7c10.19,1.96,17.86,10.92,17.86,21.65Z"/>
            </g>
          </g>
          <g>
            <g>
              <path class="cls-23" d="M14.66,239.33c0,21.99.79,42.54,2.17,60-9.65-2.37-16.83-11.07-16.83-21.45v-80.05c0-10.47,7.31-19.24,17.1-21.49-1.53,18.09-2.44,39.74-2.44,63Z"/>
              <path class="cls-23" d="M14.66,239.33c0,21.99.79,42.54,2.17,60-9.65-2.37-16.83-11.07-16.83-21.45v-80.05c0-10.47,7.31-19.24,17.1-21.49-1.53,18.09-2.44,39.74-2.44,63Z"/>
            </g>
            <g>
              <path class="cls-23" d="M1011.39,198.28v80.05c0,10.69-7.58,19.6-17.68,21.63,1.42-17.59,2.23-38.37,2.23-60.63s-.88-44.66-2.41-62.7c10.19,1.96,17.86,10.92,17.86,21.65Z"/>
              <path class="cls-23" d="M1011.39,198.28v80.05c0,10.69-7.58,19.6-17.68,21.63,1.42-17.59,2.23-38.37,2.23-60.63s-.88-44.66-2.41-62.7c10.19,1.96,17.86,10.92,17.86,21.65Z"/>
            </g>
          </g>
          <g>
            <g>
              <path class="cls-23" d="M14.66,239.33c0,21.99.79,42.54,2.17,60-9.65-2.37-16.83-11.07-16.83-21.45v-80.05c0-10.47,7.31-19.24,17.1-21.49-1.53,18.09-2.44,39.74-2.44,63Z"/>
              <path class="cls-23" d="M14.66,239.33c0,21.99.79,42.54,2.17,60-9.65-2.37-16.83-11.07-16.83-21.45v-80.05c0-10.47,7.31-19.24,17.1-21.49-1.53,18.09-2.44,39.74-2.44,63Z"/>
            </g>
            <g>
              <path class="cls-23" d="M1011.39,198.28v80.05c0,10.69-7.58,19.6-17.68,21.63,1.42-17.59,2.23-38.37,2.23-60.63s-.88-44.66-2.41-62.7c10.19,1.96,17.86,10.92,17.86,21.65Z"/>
              <path class="cls-23" d="M1011.39,198.28v80.05c0,10.69-7.58,19.6-17.68,21.63,1.42-17.59,2.23-38.37,2.23-60.63s-.88-44.66-2.41-62.7c10.19,1.96,17.86,10.92,17.86,21.65Z"/>
            </g>
          </g>
        </g>
        <g>
          <g>
            <g>
              <path class="cls-23" d="M79.19,378.38c1.15,4.08,2.37,7.98,3.63,11.73l-54.09-36.02s-.11-.05-.16-.09c-4.96-2.37-9.27-23.66-11.75-54.67-1.38-17.46-2.17-38.01-2.17-60,0-23.25.9-44.91,2.44-63,2.53-29.91,6.83-50.07,11.73-51.76t.05-.02l53.95-35.91c-1.26,3.74-2.48,7.65-3.63,11.73-10.65,37.44-16.49,86.79-16.49,139.01s5.84,101.57,16.49,139.01Z"/>
              <path class="cls-23" d="M79.19,378.38c1.15,4.08,2.37,7.98,3.63,11.73l-54.09-36.02s-.11-.05-.16-.09c-4.96-2.37-9.27-23.66-11.75-54.67-1.38-17.46-2.17-38.01-2.17-60,0-23.25.9-44.91,2.44-63,2.53-29.91,6.83-50.07,11.73-51.76t.05-.02l53.95-35.91c-1.26,3.74-2.48,7.65-3.63,11.73-10.65,37.44-16.49,86.79-16.49,139.01s5.84,101.57,16.49,139.01Z"/>
              <path class="cls-23" d="M79.19,378.38c1.15,4.08,2.37,7.98,3.63,11.73l-54.09-36.02s-.11-.05-.16-.09c-4.96-2.37-9.27-23.66-11.75-54.67-1.38-17.46-2.17-38.01-2.17-60,0-23.25.9-44.91,2.44-63,2.53-29.91,6.83-50.07,11.73-51.76t.05-.02l53.95-35.91c-1.26,3.74-2.48,7.65-3.63,11.73-10.65,37.44-16.49,86.79-16.49,139.01s5.84,101.57,16.49,139.01Z"/>
            </g>
            <g>
              <g>
                <path class="cls-23" d="M872.27,427.06l-.25.18v-.14c.09,0,.16,0,.25-.05Z"/>
                <path class="cls-23" d="M872.27,51.7c-.09-.05-.16-.05-.25-.05v-.14l.25.18Z"/>
                <path class="cls-23" d="M995.94,239.33c0,22.26-.81,43.03-2.23,60.63-2.46,30.7-6.74,51.72-11.68,54.04-.05.05-.11.07-.16.09l-56.57,37.67c1.49-4.24,2.89-8.68,4.22-13.38,10.62-37.44,16.49-86.79,16.49-139.01s-5.86-101.56-16.49-139.01c-1.33-4.69-2.73-9.13-4.22-13.38l56.43,37.55s.02,0,.05.02c4.94,1.69,9.23,21.99,11.75,52.06,1.53,18.04,2.41,39.58,2.41,62.7Z"/>
                <path class="cls-23" d="M946,239.38c0,52.21-5.86,101.57-16.49,139.01-1.33,4.69-2.73,9.13-4.22,13.38l-23.84,15.88c18.83-36,28.76-103.53,28.76-168.26s-9.92-132.26-28.76-168.26l23.84,15.88c1.49,4.24,2.89,8.68,4.22,13.38,10.62,37.44,16.49,86.79,16.49,139.01Z"/>
              </g>
              <g>
                <path class="cls-23" d="M872.27,427.06l-.25.18v-.14c.09,0,.16,0,.25-.05Z"/>
                <path class="cls-23" d="M872.27,51.7c-.09-.05-.16-.05-.25-.05v-.14l.25.18Z"/>
                <path class="cls-23" d="M995.94,239.33c0,22.26-.81,43.03-2.23,60.63-2.46,30.7-6.74,51.72-11.68,54.04-.05.05-.11.07-.16.09l-56.57,37.67c1.49-4.24,2.89-8.68,4.22-13.38,10.62-37.44,16.49-86.79,16.49-139.01s-5.86-101.56-16.49-139.01c-1.33-4.69-2.73-9.13-4.22-13.38l56.43,37.55s.02,0,.05.02c4.94,1.69,9.23,21.99,11.75,52.06,1.53,18.04,2.41,39.58,2.41,62.7Z"/>
                <path class="cls-23" d="M946,239.38c0,52.21-5.86,101.57-16.49,139.01-1.33,4.69-2.73,9.13-4.22,13.38l-23.84,15.88c18.83-36,28.76-103.53,28.76-168.26s-9.92-132.26-28.76-168.26l23.84,15.88c1.49,4.24,2.89,8.68,4.22,13.38,10.62,37.44,16.49,86.79,16.49,139.01Z"/>
              </g>
              <g>
                <path class="cls-23" d="M872.27,427.06l-.25.18v-.14c.09,0,.16,0,.25-.05Z"/>
                <path class="cls-23" d="M872.27,51.7c-.09-.05-.16-.05-.25-.05v-.14l.25.18Z"/>
                <path class="cls-23" d="M995.94,239.33c0,22.26-.81,43.03-2.23,60.63-2.46,30.7-6.74,51.72-11.68,54.04-.05.05-.11.07-.16.09l-56.57,37.67c1.49-4.24,2.89-8.68,4.22-13.38,10.62-37.44,16.49-86.79,16.49-139.01s-5.86-101.56-16.49-139.01c-1.33-4.69-2.73-9.13-4.22-13.38l56.43,37.55s.02,0,.05.02c4.94,1.69,9.23,21.99,11.75,52.06,1.53,18.04,2.41,39.58,2.41,62.7Z"/>
                <path class="cls-23" d="M946,239.38c0,52.21-5.86,101.57-16.49,139.01-1.33,4.69-2.73,9.13-4.22,13.38l-23.84,15.88c18.83-36,28.76-103.53,28.76-168.26s-9.92-132.26-28.76-168.26l23.84,15.88c1.49,4.24,2.89,8.68,4.22,13.38,10.62,37.44,16.49,86.79,16.49,139.01Z"/>
              </g>
            </g>
          </g>
          <g>
            <g>
              <path class="cls-23" d="M79.19,378.38c1.15,4.08,2.37,7.98,3.63,11.73l-54.09-36.02s-.11-.05-.16-.09c-4.96-2.37-9.27-23.66-11.75-54.67-1.38-17.46-2.17-38.01-2.17-60,0-23.25.9-44.91,2.44-63,2.53-29.91,6.83-50.07,11.73-51.76t.05-.02l53.95-35.91c-1.26,3.74-2.48,7.65-3.63,11.73-10.65,37.44-16.49,86.79-16.49,139.01s5.84,101.57,16.49,139.01Z"/>
              <path class="cls-23" d="M79.19,378.38c1.15,4.08,2.37,7.98,3.63,11.73l-54.09-36.02s-.11-.05-.16-.09c-4.96-2.37-9.27-23.66-11.75-54.67-1.38-17.46-2.17-38.01-2.17-60,0-23.25.9-44.91,2.44-63,2.53-29.91,6.83-50.07,11.73-51.76t.05-.02l53.95-35.91c-1.26,3.74-2.48,7.65-3.63,11.73-10.65,37.44-16.49,86.79-16.49,139.01s5.84,101.57,16.49,139.01Z"/>
              <path class="cls-23" d="M79.19,378.38c1.15,4.08,2.37,7.98,3.63,11.73l-54.09-36.02s-.11-.05-.16-.09c-4.96-2.37-9.27-23.66-11.75-54.67-1.38-17.46-2.17-38.01-2.17-60,0-23.25.9-44.91,2.44-63,2.53-29.91,6.83-50.07,11.73-51.76t.05-.02l53.95-35.91c-1.26,3.74-2.48,7.65-3.63,11.73-10.65,37.44-16.49,86.79-16.49,139.01s5.84,101.57,16.49,139.01Z"/>
            </g>
            <g>
              <g>
                <path class="cls-23" d="M872.27,427.06l-.25.18v-.14c.09,0,.16,0,.25-.05Z"/>
                <path class="cls-23" d="M872.27,51.7c-.09-.05-.16-.05-.25-.05v-.14l.25.18Z"/>
                <path class="cls-23" d="M995.94,239.33c0,22.26-.81,43.03-2.23,60.63-2.46,30.7-6.74,51.72-11.68,54.04-.05.05-.11.07-.16.09l-56.57,37.67c1.49-4.24,2.89-8.68,4.22-13.38,10.62-37.44,16.49-86.79,16.49-139.01s-5.86-101.56-16.49-139.01c-1.33-4.69-2.73-9.13-4.22-13.38l56.43,37.55s.02,0,.05.02c4.94,1.69,9.23,21.99,11.75,52.06,1.53,18.04,2.41,39.58,2.41,62.7Z"/>
                <path class="cls-23" d="M946,239.38c0,52.21-5.86,101.57-16.49,139.01-1.33,4.69-2.73,9.13-4.22,13.38l-23.84,15.88c18.83-36,28.76-103.53,28.76-168.26s-9.92-132.26-28.76-168.26l23.84,15.88c1.49,4.24,2.89,8.68,4.22,13.38,10.62,37.44,16.49,86.79,16.49,139.01Z"/>
              </g>
              <g>
                <path class="cls-23" d="M872.27,427.06l-.25.18v-.14c.09,0,.16,0,.25-.05Z"/>
                <path class="cls-23" d="M872.27,51.7c-.09-.05-.16-.05-.25-.05v-.14l.25.18Z"/>
                <path class="cls-23" d="M995.94,239.33c0,22.26-.81,43.03-2.23,60.63-2.46,30.7-6.74,51.72-11.68,54.04-.05.05-.11.07-.16.09l-56.57,37.67c1.49-4.24,2.89-8.68,4.22-13.38,10.62-37.44,16.49-86.79,16.49-139.01s-5.86-101.56-16.49-139.01c-1.33-4.69-2.73-9.13-4.22-13.38l56.43,37.55s.02,0,.05.02c4.94,1.69,9.23,21.99,11.75,52.06,1.53,18.04,2.41,39.58,2.41,62.7Z"/>
                <path class="cls-23" d="M946,239.38c0,52.21-5.86,101.57-16.49,139.01-1.33,4.69-2.73,9.13-4.22,13.38l-23.84,15.88c18.83-36,28.76-103.53,28.76-168.26s-9.92-132.26-28.76-168.26l23.84,15.88c1.49,4.24,2.89,8.68,4.22,13.38,10.62,37.44,16.49,86.79,16.49,139.01Z"/>
              </g>
              <g>
                <path class="cls-23" d="M872.27,427.06l-.25.18v-.14c.09,0,.16,0,.25-.05Z"/>
                <path class="cls-23" d="M872.27,51.7c-.09-.05-.16-.05-.25-.05v-.14l.25.18Z"/>
                <path class="cls-23" d="M995.94,239.33c0,22.26-.81,43.03-2.23,60.63-2.46,30.7-6.74,51.72-11.68,54.04-.05.05-.11.07-.16.09l-56.57,37.67c1.49-4.24,2.89-8.68,4.22-13.38,10.62-37.44,16.49-86.79,16.49-139.01s-5.86-101.56-16.49-139.01c-1.33-4.69-2.73-9.13-4.22-13.38l56.43,37.55s.02,0,.05.02c4.94,1.69,9.23,21.99,11.75,52.06,1.53,18.04,2.41,39.58,2.41,62.7Z"/>
                <path class="cls-23" d="M946,239.38c0,52.21-5.86,101.57-16.49,139.01-1.33,4.69-2.73,9.13-4.22,13.38l-23.84,15.88c18.83-36,28.76-103.53,28.76-168.26s-9.92-132.26-28.76-168.26l23.84,15.88c1.49,4.24,2.89,8.68,4.22,13.38,10.62,37.44,16.49,86.79,16.49,139.01Z"/>
              </g>
            </g>
          </g>
          <g>
            <g>
              <path class="cls-23" d="M79.19,378.38c1.15,4.08,2.37,7.98,3.63,11.73l-54.09-36.02s-.11-.05-.16-.09c-4.96-2.37-9.27-23.66-11.75-54.67-1.38-17.46-2.17-38.01-2.17-60,0-23.25.9-44.91,2.44-63,2.53-29.91,6.83-50.07,11.73-51.76t.05-.02l53.95-35.91c-1.26,3.74-2.48,7.65-3.63,11.73-10.65,37.44-16.49,86.79-16.49,139.01s5.84,101.57,16.49,139.01Z"/>
              <path class="cls-23" d="M79.19,378.38c1.15,4.08,2.37,7.98,3.63,11.73l-54.09-36.02s-.11-.05-.16-.09c-4.96-2.37-9.27-23.66-11.75-54.67-1.38-17.46-2.17-38.01-2.17-60,0-23.25.9-44.91,2.44-63,2.53-29.91,6.83-50.07,11.73-51.76t.05-.02l53.95-35.91c-1.26,3.74-2.48,7.65-3.63,11.73-10.65,37.44-16.49,86.79-16.49,139.01s5.84,101.57,16.49,139.01Z"/>
              <path class="cls-23" d="M79.19,378.38c1.15,4.08,2.37,7.98,3.63,11.73l-54.09-36.02s-.11-.05-.16-.09c-4.96-2.37-9.27-23.66-11.75-54.67-1.38-17.46-2.17-38.01-2.17-60,0-23.25.9-44.91,2.44-63,2.53-29.91,6.83-50.07,11.73-51.76t.05-.02l53.95-35.91c-1.26,3.74-2.48,7.65-3.63,11.73-10.65,37.44-16.49,86.79-16.49,139.01s5.84,101.57,16.49,139.01Z"/>
            </g>
            <g>
              <g>
                <path class="cls-23" d="M872.27,427.06l-.25.18v-.14c.09,0,.16,0,.25-.05Z"/>
                <path class="cls-23" d="M872.27,51.7c-.09-.05-.16-.05-.25-.05v-.14l.25.18Z"/>
                <path class="cls-23" d="M995.94,239.33c0,22.26-.81,43.03-2.23,60.63-2.46,30.7-6.74,51.72-11.68,54.04-.05.05-.11.07-.16.09l-56.57,37.67c1.49-4.24,2.89-8.68,4.22-13.38,10.62-37.44,16.49-86.79,16.49-139.01s-5.86-101.56-16.49-139.01c-1.33-4.69-2.73-9.13-4.22-13.38l56.43,37.55s.02,0,.05.02c4.94,1.69,9.23,21.99,11.75,52.06,1.53,18.04,2.41,39.58,2.41,62.7Z"/>
                <path class="cls-23" d="M946,239.38c0,52.21-5.86,101.57-16.49,139.01-1.33,4.69-2.73,9.13-4.22,13.38l-23.84,15.88c18.83-36,28.76-103.53,28.76-168.26s-9.92-132.26-28.76-168.26l23.84,15.88c1.49,4.24,2.89,8.68,4.22,13.38,10.62,37.44,16.49,86.79,16.49,139.01Z"/>
              </g>
              <g>
                <path class="cls-23" d="M872.27,427.06l-.25.18v-.14c.09,0,.16,0,.25-.05Z"/>
                <path class="cls-23" d="M872.27,51.7c-.09-.05-.16-.05-.25-.05v-.14l.25.18Z"/>
                <path class="cls-23" d="M995.94,239.33c0,22.26-.81,43.03-2.23,60.63-2.46,30.7-6.74,51.72-11.68,54.04-.05.05-.11.07-.16.09l-56.57,37.67c1.49-4.24,2.89-8.68,4.22-13.38,10.62-37.44,16.49-86.79,16.49-139.01s-5.86-101.56-16.49-139.01c-1.33-4.69-2.73-9.13-4.22-13.38l56.43,37.55s.02,0,.05.02c4.94,1.69,9.23,21.99,11.75,52.06,1.53,18.04,2.41,39.58,2.41,62.7Z"/>
                <path class="cls-23" d="M946,239.38c0,52.21-5.86,101.57-16.49,139.01-1.33,4.69-2.73,9.13-4.22,13.38l-23.84,15.88c18.83-36,28.76-103.53,28.76-168.26s-9.92-132.26-28.76-168.26l23.84,15.88c1.49,4.24,2.89,8.68,4.22,13.38,10.62,37.44,16.49,86.79,16.49,139.01Z"/>
              </g>
              <g>
                <path class="cls-23" d="M872.27,427.06l-.25.18v-.14c.09,0,.16,0,.25-.05Z"/>
                <path class="cls-23" d="M872.27,51.7c-.09-.05-.16-.05-.25-.05v-.14l.25.18Z"/>
                <path class="cls-23" d="M995.94,239.33c0,22.26-.81,43.03-2.23,60.63-2.46,30.7-6.74,51.72-11.68,54.04-.05.05-.11.07-.16.09l-56.57,37.67c1.49-4.24,2.89-8.68,4.22-13.38,10.62-37.44,16.49-86.79,16.49-139.01s-5.86-101.56-16.49-139.01c-1.33-4.69-2.73-9.13-4.22-13.38l56.43,37.55s.02,0,.05.02c4.94,1.69,9.23,21.99,11.75,52.06,1.53,18.04,2.41,39.58,2.41,62.7Z"/>
                <path class="cls-23" d="M946,239.38c0,52.21-5.86,101.57-16.49,139.01-1.33,4.69-2.73,9.13-4.22,13.38l-23.84,15.88c18.83-36,28.76-103.53,28.76-168.26s-9.92-132.26-28.76-168.26l23.84,15.88c1.49,4.24,2.89,8.68,4.22,13.38,10.62,37.44,16.49,86.79,16.49,139.01Z"/>
              </g>
            </g>
          </g>
          <g>
            <g>
              <path class="cls-23" d="M79.19,378.38c1.15,4.08,2.37,7.98,3.63,11.73l-54.09-36.02s-.11-.05-.16-.09c-4.96-2.37-9.27-23.66-11.75-54.67-1.38-17.46-2.17-38.01-2.17-60,0-23.25.9-44.91,2.44-63,2.53-29.91,6.83-50.07,11.73-51.76t.05-.02l53.95-35.91c-1.26,3.74-2.48,7.65-3.63,11.73-10.65,37.44-16.49,86.79-16.49,139.01s5.84,101.57,16.49,139.01Z"/>
              <path class="cls-23" d="M79.19,378.38c1.15,4.08,2.37,7.98,3.63,11.73l-54.09-36.02s-.11-.05-.16-.09c-4.96-2.37-9.27-23.66-11.75-54.67-1.38-17.46-2.17-38.01-2.17-60,0-23.25.9-44.91,2.44-63,2.53-29.91,6.83-50.07,11.73-51.76t.05-.02l53.95-35.91c-1.26,3.74-2.48,7.65-3.63,11.73-10.65,37.44-16.49,86.79-16.49,139.01s5.84,101.57,16.49,139.01Z"/>
              <path class="cls-23" d="M79.19,378.38c1.15,4.08,2.37,7.98,3.63,11.73l-54.09-36.02s-.11-.05-.16-.09c-4.96-2.37-9.27-23.66-11.75-54.67-1.38-17.46-2.17-38.01-2.17-60,0-23.25.9-44.91,2.44-63,2.53-29.91,6.83-50.07,11.73-51.76t.05-.02l53.95-35.91c-1.26,3.74-2.48,7.65-3.63,11.73-10.65,37.44-16.49,86.79-16.49,139.01s5.84,101.57,16.49,139.01Z"/>
            </g>
            <g>
              <g>
                <path class="cls-23" d="M872.27,427.06l-.25.18v-.14c.09,0,.16,0,.25-.05Z"/>
                <path class="cls-23" d="M872.27,51.7c-.09-.05-.16-.05-.25-.05v-.14l.25.18Z"/>
                <path class="cls-23" d="M995.94,239.33c0,22.26-.81,43.03-2.23,60.63-2.46,30.7-6.74,51.72-11.68,54.04-.05.05-.11.07-.16.09l-56.57,37.67c1.49-4.24,2.89-8.68,4.22-13.38,10.62-37.44,16.49-86.79,16.49-139.01s-5.86-101.56-16.49-139.01c-1.33-4.69-2.73-9.13-4.22-13.38l56.43,37.55s.02,0,.05.02c4.94,1.69,9.23,21.99,11.75,52.06,1.53,18.04,2.41,39.58,2.41,62.7Z"/>
                <path class="cls-23" d="M946,239.38c0,52.21-5.86,101.57-16.49,139.01-1.33,4.69-2.73,9.13-4.22,13.38l-23.84,15.88c18.83-36,28.76-103.53,28.76-168.26s-9.92-132.26-28.76-168.26l23.84,15.88c1.49,4.24,2.89,8.68,4.22,13.38,10.62,37.44,16.49,86.79,16.49,139.01Z"/>
              </g>
              <g>
                <path class="cls-23" d="M872.27,427.06l-.25.18v-.14c.09,0,.16,0,.25-.05Z"/>
                <path class="cls-23" d="M872.27,51.7c-.09-.05-.16-.05-.25-.05v-.14l.25.18Z"/>
                <path class="cls-23" d="M995.94,239.33c0,22.26-.81,43.03-2.23,60.63-2.46,30.7-6.74,51.72-11.68,54.04-.05.05-.11.07-.16.09l-56.57,37.67c1.49-4.24,2.89-8.68,4.22-13.38,10.62-37.44,16.49-86.79,16.49-139.01s-5.86-101.56-16.49-139.01c-1.33-4.69-2.73-9.13-4.22-13.38l56.43,37.55s.02,0,.05.02c4.94,1.69,9.23,21.99,11.75,52.06,1.53,18.04,2.41,39.58,2.41,62.7Z"/>
                <path class="cls-23" d="M946,239.38c0,52.21-5.86,101.57-16.49,139.01-1.33,4.69-2.73,9.13-4.22,13.38l-23.84,15.88c18.83-36,28.76-103.53,28.76-168.26s-9.92-132.26-28.76-168.26l23.84,15.88c1.49,4.24,2.89,8.68,4.22,13.38,10.62,37.44,16.49,86.79,16.49,139.01Z"/>
              </g>
              <g>
                <path class="cls-23" d="M872.27,427.06l-.25.18v-.14c.09,0,.16,0,.25-.05Z"/>
                <path class="cls-23" d="M872.27,51.7c-.09-.05-.16-.05-.25-.05v-.14l.25.18Z"/>
                <path class="cls-23" d="M995.94,239.33c0,22.26-.81,43.03-2.23,60.63-2.46,30.7-6.74,51.72-11.68,54.04-.05.05-.11.07-.16.09l-56.57,37.67c1.49-4.24,2.89-8.68,4.22-13.38,10.62-37.44,16.49-86.79,16.49-139.01s-5.86-101.56-16.49-139.01c-1.33-4.69-2.73-9.13-4.22-13.38l56.43,37.55s.02,0,.05.02c4.94,1.69,9.23,21.99,11.75,52.06,1.53,18.04,2.41,39.58,2.41,62.7Z"/>
                <path class="cls-23" d="M946,239.38c0,52.21-5.86,101.57-16.49,139.01-1.33,4.69-2.73,9.13-4.22,13.38l-23.84,15.88c18.83-36,28.76-103.53,28.76-168.26s-9.92-132.26-28.76-168.26l23.84,15.88c1.49,4.24,2.89,8.68,4.22,13.38,10.62,37.44,16.49,86.79,16.49,139.01Z"/>
              </g>
            </g>
          </g>
        </g>
        <g>
          <g>
            <g>
              <path class="cls-23" d="M190.34,427.24h-49.85v-.14c-.63.09-1.26.14-1.89.14-6.9,0-13.47-4.6-19.53-12.99-19.8-27.43-33.81-95.39-33.81-174.87s14.01-147.44,33.81-174.87c6.07-8.39,12.63-12.99,19.53-12.99.63,0,1.26.05,1.89.14v-.14h49.44c-.79,10.17-1.51,21.65-2.17,34.22-2.1,40.98-3.36,93.63-3.36,151.05s1.26,110.05,3.36,151.05c.77,14.75,1.62,27.99,2.57,39.4Z"/>
              <path class="cls-23" d="M190.34,427.24h-49.85v-.14c-.63.09-1.26.14-1.89.14-6.9,0-13.47-4.6-19.53-12.99-19.8-27.43-33.81-95.39-33.81-174.87s14.01-147.44,33.81-174.87c6.07-8.39,12.63-12.99,19.53-12.99.63,0,1.26.05,1.89.14v-.14h49.44c-.79,10.17-1.51,21.65-2.17,34.22-2.1,40.98-3.36,93.63-3.36,151.05s1.26,110.05,3.36,151.05c.77,14.75,1.62,27.99,2.57,39.4Z"/>
            </g>
            <g>
              <path class="cls-23" d="M923.45,239.38c0,82.12-14.98,151.95-35.84,177.49-4.83,5.93-9.97,9.47-15.34,10.19-.09.05-.16.05-.25.05-.63.09-1.29.14-1.92.14h-50.52c.95-11.41,1.83-24.65,2.57-39.4,1.47-28.6,2.53-62.86,3.02-100.44.25-15.18.38-30.54.41-46.1.02-16.87-.09-33.54-.34-49.96-.47-39.63-1.56-75.72-3.09-105.6-.63-12.56-1.35-24.04-2.17-34.22h50.12c.63,0,1.29.05,1.92.14.09,0,.16,0,.25.05,5.37.72,10.51,4.26,15.34,10.19,20.86,25.53,35.84,95.36,35.84,177.49Z"/>
              <path class="cls-23" d="M923.45,239.38c0,82.12-14.98,151.95-35.84,177.49-4.83,5.93-9.97,9.47-15.34,10.19-.09.05-.16.05-.25.05-.63.09-1.29.14-1.92.14h-50.52c.95-11.41,1.83-24.65,2.57-39.4,1.47-28.6,2.53-62.86,3.02-100.44.25-15.18.38-30.54.41-46.1.02-16.87-.09-33.54-.34-49.96-.47-39.63-1.56-75.72-3.09-105.6-.63-12.56-1.35-24.04-2.17-34.22h50.12c.63,0,1.29.05,1.92.14.09,0,.16,0,.25.05,5.37.72,10.51,4.26,15.34,10.19,20.86,25.53,35.84,95.36,35.84,177.49Z"/>
            </g>
            <g>
              <path class="cls-23" d="M825.51,283.29c-.73,82.55-3.49,143.95-6.76,143.95H191.17c-3.27,0-6.03-61.24-6.76-143.65v-88.42c.73-82.33,3.49-143.47,6.76-143.47h9.95c0-.07,0-.14-.03-.18h607.72s-.03.11-.03.18h9.95c3.27,0,6.03,61.28,6.76,143.77v87.83Z"/>
              <path class="cls-23" d="M825.51,283.29c-.73,82.55-3.49,143.95-6.76,143.95H191.17c-3.27,0-6.03-61.24-6.76-143.65v-88.42c.73-82.33,3.49-143.47,6.76-143.47h9.95c0-.07,0-.14-.03-.18h607.72s-.03.11-.03.18h9.95c3.27,0,6.03,61.28,6.76,143.77v87.83Z"/>
            </g>
          </g>
          <g>
            <g>
              <path class="cls-23" d="M190.34,427.24h-49.85v-.14c-.63.09-1.26.14-1.89.14-6.9,0-13.47-4.6-19.53-12.99-19.8-27.43-33.81-95.39-33.81-174.87s14.01-147.44,33.81-174.87c6.07-8.39,12.63-12.99,19.53-12.99.63,0,1.26.05,1.89.14v-.14h49.44c-.79,10.17-1.51,21.65-2.17,34.22-2.1,40.98-3.36,93.63-3.36,151.05s1.26,110.05,3.36,151.05c.77,14.75,1.62,27.99,2.57,39.4Z"/>
              <path class="cls-23" d="M190.34,427.24h-49.85v-.14c-.63.09-1.26.14-1.89.14-6.9,0-13.47-4.6-19.53-12.99-19.8-27.43-33.81-95.39-33.81-174.87s14.01-147.44,33.81-174.87c6.07-8.39,12.63-12.99,19.53-12.99.63,0,1.26.05,1.89.14v-.14h49.44c-.79,10.17-1.51,21.65-2.17,34.22-2.1,40.98-3.36,93.63-3.36,151.05s1.26,110.05,3.36,151.05c.77,14.75,1.62,27.99,2.57,39.4Z"/>
            </g>
            <g>
              <path class="cls-23" d="M923.45,239.38c0,82.12-14.98,151.95-35.84,177.49-4.83,5.93-9.97,9.47-15.34,10.19-.09.05-.16.05-.25.05-.63.09-1.29.14-1.92.14h-50.52c.95-11.41,1.83-24.65,2.57-39.4,1.47-28.6,2.53-62.86,3.02-100.44.25-15.18.38-30.54.41-46.1.02-16.87-.09-33.54-.34-49.96-.47-39.63-1.56-75.72-3.09-105.6-.63-12.56-1.35-24.04-2.17-34.22h50.12c.63,0,1.29.05,1.92.14.09,0,.16,0,.25.05,5.37.72,10.51,4.26,15.34,10.19,20.86,25.53,35.84,95.36,35.84,177.49Z"/>
              <path class="cls-23" d="M923.45,239.38c0,82.12-14.98,151.95-35.84,177.49-4.83,5.93-9.97,9.47-15.34,10.19-.09.05-.16.05-.25.05-.63.09-1.29.14-1.92.14h-50.52c.95-11.41,1.83-24.65,2.57-39.4,1.47-28.6,2.53-62.86,3.02-100.44.25-15.18.38-30.54.41-46.1.02-16.87-.09-33.54-.34-49.96-.47-39.63-1.56-75.72-3.09-105.6-.63-12.56-1.35-24.04-2.17-34.22h50.12c.63,0,1.29.05,1.92.14.09,0,.16,0,.25.05,5.37.72,10.51,4.26,15.34,10.19,20.86,25.53,35.84,95.36,35.84,177.49Z"/>
            </g>
            <g>
              <path class="cls-23" d="M825.51,283.29c-.73,82.55-3.49,143.95-6.76,143.95H191.17c-3.27,0-6.03-61.24-6.76-143.65v-88.42c.73-82.33,3.49-143.47,6.76-143.47h9.95c0-.07,0-.14-.03-.18h607.72s-.03.11-.03.18h9.95c3.27,0,6.03,61.28,6.76,143.77v87.83Z"/>
              <path class="cls-23" d="M825.51,283.29c-.73,82.55-3.49,143.95-6.76,143.95H191.17c-3.27,0-6.03-61.24-6.76-143.65v-88.42c.73-82.33,3.49-143.47,6.76-143.47h9.95c0-.07,0-.14-.03-.18h607.72s-.03.11-.03.18h9.95c3.27,0,6.03,61.28,6.76,143.77v87.83Z"/>
            </g>
          </g>
          <g>
            <g>
              <path class="cls-23" d="M190.34,427.24h-49.85v-.14c-.63.09-1.26.14-1.89.14-6.9,0-13.47-4.6-19.53-12.99-19.8-27.43-33.81-95.39-33.81-174.87s14.01-147.44,33.81-174.87c6.07-8.39,12.63-12.99,19.53-12.99.63,0,1.26.05,1.89.14v-.14h49.44c-.79,10.17-1.51,21.65-2.17,34.22-2.1,40.98-3.36,93.63-3.36,151.05s1.26,110.05,3.36,151.05c.77,14.75,1.62,27.99,2.57,39.4Z"/>
              <path class="cls-23" d="M190.34,427.24h-49.85v-.14c-.63.09-1.26.14-1.89.14-6.9,0-13.47-4.6-19.53-12.99-19.8-27.43-33.81-95.39-33.81-174.87s14.01-147.44,33.81-174.87c6.07-8.39,12.63-12.99,19.53-12.99.63,0,1.26.05,1.89.14v-.14h49.44c-.79,10.17-1.51,21.65-2.17,34.22-2.1,40.98-3.36,93.63-3.36,151.05s1.26,110.05,3.36,151.05c.77,14.75,1.62,27.99,2.57,39.4Z"/>
            </g>
            <g>
              <path class="cls-23" d="M923.45,239.38c0,82.12-14.98,151.95-35.84,177.49-4.83,5.93-9.97,9.47-15.34,10.19-.09.05-.16.05-.25.05-.63.09-1.29.14-1.92.14h-50.52c.95-11.41,1.83-24.65,2.57-39.4,1.47-28.6,2.53-62.86,3.02-100.44.25-15.18.38-30.54.41-46.1.02-16.87-.09-33.54-.34-49.96-.47-39.63-1.56-75.72-3.09-105.6-.63-12.56-1.35-24.04-2.17-34.22h50.12c.63,0,1.29.05,1.92.14.09,0,.16,0,.25.05,5.37.72,10.51,4.26,15.34,10.19,20.86,25.53,35.84,95.36,35.84,177.49Z"/>
              <path class="cls-23" d="M923.45,239.38c0,82.12-14.98,151.95-35.84,177.49-4.83,5.93-9.97,9.47-15.34,10.19-.09.05-.16.05-.25.05-.63.09-1.29.14-1.92.14h-50.52c.95-11.41,1.83-24.65,2.57-39.4,1.47-28.6,2.53-62.86,3.02-100.44.25-15.18.38-30.54.41-46.1.02-16.87-.09-33.54-.34-49.96-.47-39.63-1.56-75.72-3.09-105.6-.63-12.56-1.35-24.04-2.17-34.22h50.12c.63,0,1.29.05,1.92.14.09,0,.16,0,.25.05,5.37.72,10.51,4.26,15.34,10.19,20.86,25.53,35.84,95.36,35.84,177.49Z"/>
            </g>
            <g>
              <path class="cls-23" d="M825.51,283.29c-.73,82.55-3.49,143.95-6.76,143.95H191.17c-3.27,0-6.03-61.24-6.76-143.65v-88.42c.73-82.33,3.49-143.47,6.76-143.47h9.95c0-.07,0-.14-.03-.18h607.72s-.03.11-.03.18h9.95c3.27,0,6.03,61.28,6.76,143.77v87.83Z"/>
              <path class="cls-23" d="M825.51,283.29c-.73,82.55-3.49,143.95-6.76,143.95H191.17c-3.27,0-6.03-61.24-6.76-143.65v-88.42c.73-82.33,3.49-143.47,6.76-143.47h9.95c0-.07,0-.14-.03-.18h607.72s-.03.11-.03.18h9.95c3.27,0,6.03,61.28,6.76,143.77v87.83Z"/>
            </g>
          </g>
          <g>
            <g>
              <path class="cls-23" d="M190.34,427.24h-49.85v-.14c-.63.09-1.26.14-1.89.14-6.9,0-13.47-4.6-19.53-12.99-19.8-27.43-33.81-95.39-33.81-174.87s14.01-147.44,33.81-174.87c6.07-8.39,12.63-12.99,19.53-12.99.63,0,1.26.05,1.89.14v-.14h49.44c-.79,10.17-1.51,21.65-2.17,34.22-2.1,40.98-3.36,93.63-3.36,151.05s1.26,110.05,3.36,151.05c.77,14.75,1.62,27.99,2.57,39.4Z"/>
              <path class="cls-23" d="M190.34,427.24h-49.85v-.14c-.63.09-1.26.14-1.89.14-6.9,0-13.47-4.6-19.53-12.99-19.8-27.43-33.81-95.39-33.81-174.87s14.01-147.44,33.81-174.87c6.07-8.39,12.63-12.99,19.53-12.99.63,0,1.26.05,1.89.14v-.14h49.44c-.79,10.17-1.51,21.65-2.17,34.22-2.1,40.98-3.36,93.63-3.36,151.05s1.26,110.05,3.36,151.05c.77,14.75,1.62,27.99,2.57,39.4Z"/>
            </g>
            <g>
              <path class="cls-23" d="M923.45,239.38c0,82.12-14.98,151.95-35.84,177.49-4.83,5.93-9.97,9.47-15.34,10.19-.09.05-.16.05-.25.05-.63.09-1.29.14-1.92.14h-50.52c.95-11.41,1.83-24.65,2.57-39.4,1.47-28.6,2.53-62.86,3.02-100.44.25-15.18.38-30.54.41-46.1.02-16.87-.09-33.54-.34-49.96-.47-39.63-1.56-75.72-3.09-105.6-.63-12.56-1.35-24.04-2.17-34.22h50.12c.63,0,1.29.05,1.92.14.09,0,.16,0,.25.05,5.37.72,10.51,4.26,15.34,10.19,20.86,25.53,35.84,95.36,35.84,177.49Z"/>
              <path class="cls-23" d="M923.45,239.38c0,82.12-14.98,151.95-35.84,177.49-4.83,5.93-9.97,9.47-15.34,10.19-.09.05-.16.05-.25.05-.63.09-1.29.14-1.92.14h-50.52c.95-11.41,1.83-24.65,2.57-39.4,1.47-28.6,2.53-62.86,3.02-100.44.25-15.18.38-30.54.41-46.1.02-16.87-.09-33.54-.34-49.96-.47-39.63-1.56-75.72-3.09-105.6-.63-12.56-1.35-24.04-2.17-34.22h50.12c.63,0,1.29.05,1.92.14.09,0,.16,0,.25.05,5.37.72,10.51,4.26,15.34,10.19,20.86,25.53,35.84,95.36,35.84,177.49Z"/>
            </g>
            <g>
              <path class="cls-23" d="M825.51,283.29c-.73,82.55-3.49,143.95-6.76,143.95H191.17c-3.27,0-6.03-61.24-6.76-143.65v-88.42c.73-82.33,3.49-143.47,6.76-143.47h9.95c0-.07,0-.14-.03-.18h607.72s-.03.11-.03.18h9.95c3.27,0,6.03,61.28,6.76,143.77v87.83Z"/>
              <path class="cls-23" d="M825.51,283.29c-.73,82.55-3.49,143.95-6.76,143.95H191.17c-3.27,0-6.03-61.24-6.76-143.65v-88.42c.73-82.33,3.49-143.47,6.76-143.47h9.95c0-.07,0-.14-.03-.18h607.72s-.03.11-.03.18h9.95c3.27,0,6.03,61.28,6.76,143.77v87.83Z"/>
            </g>
          </g>
        </g>
        <g>
          <g>
            <g>
              <path class="cls-23" d="M140.49,427.24h14.84c-5.14,4.38-10.74,6.77-16.74,6.77-12.74,0-23.55-10.67-32.34-28.31-18.2-36.45-27.77-102.74-27.77-166.32s9.56-129.87,27.77-166.32c8.8-17.64,19.6-28.31,32.34-28.31,6,0,11.59,2.39,16.74,6.77h-14.84v.14c-.63-.09-1.26-.14-1.89-.14-6.9,0-13.47,4.6-19.53,12.99-19.8,27.43-33.81,95.38-33.81,174.87s14.01,147.44,33.81,174.87c6.07,8.39,12.63,12.99,19.53,12.99.63,0,1.26-.05,1.89-.14v.14Z"/>
              <path class="cls-23" d="M140.49,427.24h14.84c-5.14,4.38-10.74,6.77-16.74,6.77-12.74,0-23.55-10.67-32.34-28.31-18.2-36.45-27.77-102.74-27.77-166.32s9.56-129.87,27.77-166.32c8.8-17.64,19.6-28.31,32.34-28.31,6,0,11.59,2.39,16.74,6.77h-14.84v.14c-.63-.09-1.26-.14-1.89-.14-6.9,0-13.47,4.6-19.53,12.99-19.8,27.43-33.81,95.38-33.81,174.87s14.01,147.44,33.81,174.87c6.07,8.39,12.63,12.99,19.53,12.99.63,0,1.26-.05,1.89-.14v.14Z"/>
            </g>
            <g>
              <path class="cls-23" d="M930.21,239.38c0,64.73-9.92,132.26-28.76,168.26-8.62,16.49-19.1,26.37-31.35,26.37-6,0-11.59-2.39-16.74-6.77h18.65l.25-.18c5.37-.72,10.51-4.26,15.34-10.19,20.86-25.53,35.84-95.36,35.84-177.49s-14.98-151.95-35.84-177.49c-4.83-5.93-9.97-9.47-15.34-10.19l-.25-.18h-18.65c5.14-4.38,10.74-6.77,16.74-6.77,12.25,0,22.74,9.88,31.35,26.37,18.83,36,28.76,103.53,28.76,168.26Z"/>
              <path class="cls-23" d="M930.21,239.38c0,64.73-9.92,132.26-28.76,168.26-8.62,16.49-19.1,26.37-31.35,26.37-6,0-11.59-2.39-16.74-6.77h18.65l.25-.18c5.37-.72,10.51-4.26,15.34-10.19,20.86-25.53,35.84-95.36,35.84-177.49s-14.98-151.95-35.84-177.49c-4.83-5.93-9.97-9.47-15.34-10.19l-.25-.18h-18.65c5.14-4.38,10.74-6.77,16.74-6.77,12.25,0,22.74,9.88,31.35,26.37,18.83,36,28.76,103.53,28.76,168.26Z"/>
            </g>
          </g>
          <g>
            <g>
              <path class="cls-23" d="M140.49,427.24h14.84c-5.14,4.38-10.74,6.77-16.74,6.77-12.74,0-23.55-10.67-32.34-28.31-18.2-36.45-27.77-102.74-27.77-166.32s9.56-129.87,27.77-166.32c8.8-17.64,19.6-28.31,32.34-28.31,6,0,11.59,2.39,16.74,6.77h-14.84v.14c-.63-.09-1.26-.14-1.89-.14-6.9,0-13.47,4.6-19.53,12.99-19.8,27.43-33.81,95.38-33.81,174.87s14.01,147.44,33.81,174.87c6.07,8.39,12.63,12.99,19.53,12.99.63,0,1.26-.05,1.89-.14v.14Z"/>
              <path class="cls-23" d="M140.49,427.24h14.84c-5.14,4.38-10.74,6.77-16.74,6.77-12.74,0-23.55-10.67-32.34-28.31-18.2-36.45-27.77-102.74-27.77-166.32s9.56-129.87,27.77-166.32c8.8-17.64,19.6-28.31,32.34-28.31,6,0,11.59,2.39,16.74,6.77h-14.84v.14c-.63-.09-1.26-.14-1.89-.14-6.9,0-13.47,4.6-19.53,12.99-19.8,27.43-33.81,95.38-33.81,174.87s14.01,147.44,33.81,174.87c6.07,8.39,12.63,12.99,19.53,12.99.63,0,1.26-.05,1.89-.14v.14Z"/>
            </g>
            <g>
              <path class="cls-23" d="M930.21,239.38c0,64.73-9.92,132.26-28.76,168.26-8.62,16.49-19.1,26.37-31.35,26.37-6,0-11.59-2.39-16.74-6.77h18.65l.25-.18c5.37-.72,10.51-4.26,15.34-10.19,20.86-25.53,35.84-95.36,35.84-177.49s-14.98-151.95-35.84-177.49c-4.83-5.93-9.97-9.47-15.34-10.19l-.25-.18h-18.65c5.14-4.38,10.74-6.77,16.74-6.77,12.25,0,22.74,9.88,31.35,26.37,18.83,36,28.76,103.53,28.76,168.26Z"/>
              <path class="cls-23" d="M930.21,239.38c0,64.73-9.92,132.26-28.76,168.26-8.62,16.49-19.1,26.37-31.35,26.37-6,0-11.59-2.39-16.74-6.77h18.65l.25-.18c5.37-.72,10.51-4.26,15.34-10.19,20.86-25.53,35.84-95.36,35.84-177.49s-14.98-151.95-35.84-177.49c-4.83-5.93-9.97-9.47-15.34-10.19l-.25-.18h-18.65c5.14-4.38,10.74-6.77,16.74-6.77,12.25,0,22.74,9.88,31.35,26.37,18.83,36,28.76,103.53,28.76,168.26Z"/>
            </g>
          </g>
          <g>
            <g>
              <path class="cls-23" d="M140.49,427.24h14.84c-5.14,4.38-10.74,6.77-16.74,6.77-12.74,0-23.55-10.67-32.34-28.31-18.2-36.45-27.77-102.74-27.77-166.32s9.56-129.87,27.77-166.32c8.8-17.64,19.6-28.31,32.34-28.31,6,0,11.59,2.39,16.74,6.77h-14.84v.14c-.63-.09-1.26-.14-1.89-.14-6.9,0-13.47,4.6-19.53,12.99-19.8,27.43-33.81,95.38-33.81,174.87s14.01,147.44,33.81,174.87c6.07,8.39,12.63,12.99,19.53,12.99.63,0,1.26-.05,1.89-.14v.14Z"/>
              <path class="cls-23" d="M140.49,427.24h14.84c-5.14,4.38-10.74,6.77-16.74,6.77-12.74,0-23.55-10.67-32.34-28.31-18.2-36.45-27.77-102.74-27.77-166.32s9.56-129.87,27.77-166.32c8.8-17.64,19.6-28.31,32.34-28.31,6,0,11.59,2.39,16.74,6.77h-14.84v.14c-.63-.09-1.26-.14-1.89-.14-6.9,0-13.47,4.6-19.53,12.99-19.8,27.43-33.81,95.38-33.81,174.87s14.01,147.44,33.81,174.87c6.07,8.39,12.63,12.99,19.53,12.99.63,0,1.26-.05,1.89-.14v.14Z"/>
            </g>
            <g>
              <path class="cls-23" d="M930.21,239.38c0,64.73-9.92,132.26-28.76,168.26-8.62,16.49-19.1,26.37-31.35,26.37-6,0-11.59-2.39-16.74-6.77h18.65l.25-.18c5.37-.72,10.51-4.26,15.34-10.19,20.86-25.53,35.84-95.36,35.84-177.49s-14.98-151.95-35.84-177.49c-4.83-5.93-9.97-9.47-15.34-10.19l-.25-.18h-18.65c5.14-4.38,10.74-6.77,16.74-6.77,12.25,0,22.74,9.88,31.35,26.37,18.83,36,28.76,103.53,28.76,168.26Z"/>
              <path class="cls-23" d="M930.21,239.38c0,64.73-9.92,132.26-28.76,168.26-8.62,16.49-19.1,26.37-31.35,26.37-6,0-11.59-2.39-16.74-6.77h18.65l.25-.18c5.37-.72,10.51-4.26,15.34-10.19,20.86-25.53,35.84-95.36,35.84-177.49s-14.98-151.95-35.84-177.49c-4.83-5.93-9.97-9.47-15.34-10.19l-.25-.18h-18.65c5.14-4.38,10.74-6.77,16.74-6.77,12.25,0,22.74,9.88,31.35,26.37,18.83,36,28.76,103.53,28.76,168.26Z"/>
            </g>
          </g>
        </g>
        <g>
          <g>
            <path class="cls-23" d="M138.6,434h-32.57c-8.98-9.97-16.74-24.61-23.21-43.89-1.26-3.74-2.48-7.65-3.63-11.73-10.65-37.44-16.49-86.79-16.49-139.01s5.84-101.56,16.49-139.01c1.15-4.08,2.37-7.98,3.63-11.73,6.47-19.28,14.23-33.92,23.21-43.89h32.57c-12.74,0-23.55,10.67-32.34,28.31-18.2,36.45-27.77,102.74-27.77,166.32s9.56,129.87,27.77,166.32c8.8,17.64,19.6,28.31,32.34,28.31Z"/>
            <path class="cls-23" d="M138.6,434h-32.57c-8.98-9.97-16.74-24.61-23.21-43.89-1.26-3.74-2.48-7.65-3.63-11.73-10.65-37.44-16.49-86.79-16.49-139.01s5.84-101.56,16.49-139.01c1.15-4.08,2.37-7.98,3.63-11.73,6.47-19.28,14.23-33.92,23.21-43.89h32.57c-12.74,0-23.55,10.67-32.34,28.31-18.2,36.45-27.77,102.74-27.77,166.32s9.56,129.87,27.77,166.32c8.8,17.64,19.6,28.31,32.34,28.31Z"/>
          </g>
          <g>
            <path class="cls-23" d="M946,239.38c0,52.21-5.86,101.57-16.49,139.01-1.33,4.69-2.73,9.13-4.22,13.38-6.34,18.47-13.92,32.57-22.65,42.25h-32.55c12.25,0,22.74-9.88,31.35-26.37,18.83-36,28.76-103.53,28.76-168.26s-9.92-132.26-28.76-168.26c-8.62-16.49-19.1-26.37-31.35-26.37h32.55c8.73,9.68,16.31,23.77,22.65,42.25,1.49,4.24,2.89,8.68,4.22,13.38,10.62,37.44,16.49,86.79,16.49,139.01Z"/>
            <path class="cls-23" d="M946,239.38c0,52.21-5.86,101.57-16.49,139.01-1.33,4.69-2.73,9.13-4.22,13.38-6.34,18.47-13.92,32.57-22.65,42.25h-32.55c12.25,0,22.74-9.88,31.35-26.37,18.83-36,28.76-103.53,28.76-168.26s-9.92-132.26-28.76-168.26c-8.62-16.49-19.1-26.37-31.35-26.37h32.55c8.73,9.68,16.31,23.77,22.65,42.25,1.49,4.24,2.89,8.68,4.22,13.38,10.62,37.44,16.49,86.79,16.49,139.01Z"/>
          </g>
        </g>
        <g>
          <g>
            <g>
              <path class="cls-23" d="M825.24,191.33l-9.56,4.13c-.61-82.48-2.91-143.77-5.64-143.77h-8.3c0-.07,0-.14.02-.18,2.48-32.25,5.66-51.52,9.11-51.52s6.61,19.26,9.11,51.52c.81,10.17,1.53,21.65,2.17,34.22,1.53,29.89,2.62,65.97,3.09,105.6Z"/>
              <path class="cls-23" d="M825.24,191.33l-9.56,4.13c-.61-82.48-2.91-143.77-5.64-143.77h-8.3c0-.07,0-.14.02-.18,2.48-32.25,5.66-51.52,9.11-51.52s6.61,19.26,9.11,51.52c.81,10.17,1.53,21.65,2.17,34.22,1.53,29.89,2.62,65.97,3.09,105.6Z"/>
            </g>
            <g>
              <path class="cls-23" d="M199.88,427.24h7.87c-2.41,29.12-5.44,46.35-8.71,46.35s-6.27-17.23-8.71-46.35c-.95-11.41-1.8-24.65-2.57-39.4-2.1-41-3.36-93.65-3.36-151.05s1.26-110.07,3.36-151.05c.65-12.56,1.38-24.04,2.17-34.22,2.5-32.25,5.66-51.52,9.11-51.52s6.63,19.26,9.11,51.52c.02.05.02.11.02.18h-8.3c-2.73,0-5.03,61.15-5.64,143.47l-9.16-3.95v96.31l9.16-3.95c.61,82.42,2.91,143.65,5.64,143.65Z"/>
              <path class="cls-23" d="M199.88,427.24h7.87c-2.41,29.12-5.44,46.35-8.71,46.35s-6.27-17.23-8.71-46.35c-.95-11.41-1.8-24.65-2.57-39.4-2.1-41-3.36-93.65-3.36-151.05s1.26-110.07,3.36-151.05c.65-12.56,1.38-24.04,2.17-34.22,2.5-32.25,5.66-51.52,9.11-51.52s6.63,19.26,9.11,51.52c.02.05.02.11.02.18h-8.3c-2.73,0-5.03,61.15-5.64,143.47l-9.16-3.95v96.31l9.16-3.95c.61,82.42,2.91,143.65,5.64,143.65Z"/>
            </g>
            <g>
              <path class="cls-23" d="M825.17,287.4c-.5,37.58-1.56,71.84-3.02,100.44-.74,14.75-1.62,27.99-2.57,39.4-2.44,29.12-5.46,46.35-8.71,46.35s-6.27-17.23-8.71-46.35h7.87c2.73,0,5.03-61.39,5.64-143.95l9.5,4.1Z"/>
              <path class="cls-23" d="M825.17,287.4c-.5,37.58-1.56,71.84-3.02,100.44-.74,14.75-1.62,27.99-2.57,39.4-2.44,29.12-5.46,46.35-8.71,46.35s-6.27-17.23-8.71-46.35h7.87c2.73,0,5.03-61.39,5.64-143.95l9.5,4.1Z"/>
            </g>
          </g>
          <g>
            <g>
              <path class="cls-23" d="M825.24,191.33l-9.56,4.13c-.61-82.48-2.91-143.77-5.64-143.77h-8.3c0-.07,0-.14.02-.18,2.48-32.25,5.66-51.52,9.11-51.52s6.61,19.26,9.11,51.52c.81,10.17,1.53,21.65,2.17,34.22,1.53,29.89,2.62,65.97,3.09,105.6Z"/>
              <path class="cls-23" d="M825.24,191.33l-9.56,4.13c-.61-82.48-2.91-143.77-5.64-143.77h-8.3c0-.07,0-.14.02-.18,2.48-32.25,5.66-51.52,9.11-51.52s6.61,19.26,9.11,51.52c.81,10.17,1.53,21.65,2.17,34.22,1.53,29.89,2.62,65.97,3.09,105.6Z"/>
            </g>
            <g>
              <path class="cls-23" d="M199.88,427.24h7.87c-2.41,29.12-5.44,46.35-8.71,46.35s-6.27-17.23-8.71-46.35c-.95-11.41-1.8-24.65-2.57-39.4-2.1-41-3.36-93.65-3.36-151.05s1.26-110.07,3.36-151.05c.65-12.56,1.38-24.04,2.17-34.22,2.5-32.25,5.66-51.52,9.11-51.52s6.63,19.26,9.11,51.52c.02.05.02.11.02.18h-8.3c-2.73,0-5.03,61.15-5.64,143.47l-9.16-3.95v96.31l9.16-3.95c.61,82.42,2.91,143.65,5.64,143.65Z"/>
              <path class="cls-23" d="M199.88,427.24h7.87c-2.41,29.12-5.44,46.35-8.71,46.35s-6.27-17.23-8.71-46.35c-.95-11.41-1.8-24.65-2.57-39.4-2.1-41-3.36-93.65-3.36-151.05s1.26-110.07,3.36-151.05c.65-12.56,1.38-24.04,2.17-34.22,2.5-32.25,5.66-51.52,9.11-51.52s6.63,19.26,9.11,51.52c.02.05.02.11.02.18h-8.3c-2.73,0-5.03,61.15-5.64,143.47l-9.16-3.95v96.31l9.16-3.95c.61,82.42,2.91,143.65,5.64,143.65Z"/>
            </g>
            <g>
              <path class="cls-23" d="M825.17,287.4c-.5,37.58-1.56,71.84-3.02,100.44-.74,14.75-1.62,27.99-2.57,39.4-2.44,29.12-5.46,46.35-8.71,46.35s-6.27-17.23-8.71-46.35h7.87c2.73,0,5.03-61.39,5.64-143.95l9.5,4.1Z"/>
              <path class="cls-23" d="M825.17,287.4c-.5,37.58-1.56,71.84-3.02,100.44-.74,14.75-1.62,27.99-2.57,39.4-2.44,29.12-5.46,46.35-8.71,46.35s-6.27-17.23-8.71-46.35h7.87c2.73,0,5.03-61.39,5.64-143.95l9.5,4.1Z"/>
            </g>
          </g>
          <g>
            <g>
              <path class="cls-23" d="M825.24,191.33l-9.56,4.13c-.61-82.48-2.91-143.77-5.64-143.77h-8.3c0-.07,0-.14.02-.18,2.48-32.25,5.66-51.52,9.11-51.52s6.61,19.26,9.11,51.52c.81,10.17,1.53,21.65,2.17,34.22,1.53,29.89,2.62,65.97,3.09,105.6Z"/>
              <path class="cls-23" d="M825.24,191.33l-9.56,4.13c-.61-82.48-2.91-143.77-5.64-143.77h-8.3c0-.07,0-.14.02-.18,2.48-32.25,5.66-51.52,9.11-51.52s6.61,19.26,9.11,51.52c.81,10.17,1.53,21.65,2.17,34.22,1.53,29.89,2.62,65.97,3.09,105.6Z"/>
            </g>
            <g>
              <path class="cls-23" d="M199.88,427.24h7.87c-2.41,29.12-5.44,46.35-8.71,46.35s-6.27-17.23-8.71-46.35c-.95-11.41-1.8-24.65-2.57-39.4-2.1-41-3.36-93.65-3.36-151.05s1.26-110.07,3.36-151.05c.65-12.56,1.38-24.04,2.17-34.22,2.5-32.25,5.66-51.52,9.11-51.52s6.63,19.26,9.11,51.52c.02.05.02.11.02.18h-8.3c-2.73,0-5.03,61.15-5.64,143.47l-9.16-3.95v96.31l9.16-3.95c.61,82.42,2.91,143.65,5.64,143.65Z"/>
              <path class="cls-23" d="M199.88,427.24h7.87c-2.41,29.12-5.44,46.35-8.71,46.35s-6.27-17.23-8.71-46.35c-.95-11.41-1.8-24.65-2.57-39.4-2.1-41-3.36-93.65-3.36-151.05s1.26-110.07,3.36-151.05c.65-12.56,1.38-24.04,2.17-34.22,2.5-32.25,5.66-51.52,9.11-51.52s6.63,19.26,9.11,51.52c.02.05.02.11.02.18h-8.3c-2.73,0-5.03,61.15-5.64,143.47l-9.16-3.95v96.31l9.16-3.95c.61,82.42,2.91,143.65,5.64,143.65Z"/>
            </g>
            <g>
              <path class="cls-23" d="M825.17,287.4c-.5,37.58-1.56,71.84-3.02,100.44-.74,14.75-1.62,27.99-2.57,39.4-2.44,29.12-5.46,46.35-8.71,46.35s-6.27-17.23-8.71-46.35h7.87c2.73,0,5.03-61.39,5.64-143.95l9.5,4.1Z"/>
              <path class="cls-23" d="M825.17,287.4c-.5,37.58-1.56,71.84-3.02,100.44-.74,14.75-1.62,27.99-2.57,39.4-2.44,29.12-5.46,46.35-8.71,46.35s-6.27-17.23-8.71-46.35h7.87c2.73,0,5.03-61.39,5.64-143.95l9.5,4.1Z"/>
            </g>
          </g>
        </g>
        <g>
          <g>
            <g>
              <path class="cls-23" d="M848.07,236.78c0,78.06-2.35,147.31-5.93,190.45-2.44,29.12-5.46,46.35-8.71,46.35h-22.55c3.25,0,6.27-17.23,8.71-46.35.95-11.41,1.83-24.65,2.57-39.4,1.47-28.6,2.53-62.86,3.02-100.44.23-16.31.34-33.25.34-50.61,0-15.54-.09-30.74-.27-45.45-.47-39.63-1.56-75.72-3.09-105.6-.63-12.56-1.35-24.04-2.17-34.22-2.5-32.25-5.66-51.52-9.11-51.52h22.55c3.45,0,6.61,19.26,9.11,51.52,3.36,43.37,5.53,110.25,5.53,185.27Z"/>
              <path class="cls-23" d="M848.07,236.78c0,78.06-2.35,147.31-5.93,190.45-2.44,29.12-5.46,46.35-8.71,46.35h-22.55c3.25,0,6.27-17.23,8.71-46.35.95-11.41,1.83-24.65,2.57-39.4,1.47-28.6,2.53-62.86,3.02-100.44.23-16.31.34-33.25.34-50.61,0-15.54-.09-30.74-.27-45.45-.47-39.63-1.56-75.72-3.09-105.6-.63-12.56-1.35-24.04-2.17-34.22-2.5-32.25-5.66-51.52-9.11-51.52h22.55c3.45,0,6.61,19.26,9.11,51.52,3.36,43.37,5.53,110.25,5.53,185.27Z"/>
            </g>
            <g>
              <path class="cls-23" d="M199.05,473.59h-22.55c-3.25,0-6.27-17.23-8.71-46.35-3.59-43.15-5.93-112.39-5.93-190.45s2.17-141.89,5.53-185.27c2.5-32.25,5.66-51.52,9.11-51.52h22.55c-3.45,0-6.61,19.26-9.11,51.52-.79,10.17-1.51,21.65-2.17,34.22-2.1,40.98-3.36,93.63-3.36,151.05s1.26,110.05,3.36,151.05c.77,14.75,1.62,27.99,2.57,39.4,2.44,29.12,5.46,46.35,8.71,46.35Z"/>
              <path class="cls-23" d="M199.05,473.59h-22.55c-3.25,0-6.27-17.23-8.71-46.35-3.59-43.15-5.93-112.39-5.93-190.45s2.17-141.89,5.53-185.27c2.5-32.25,5.66-51.52,9.11-51.52h22.55c-3.45,0-6.61,19.26-9.11,51.52-.79,10.17-1.51,21.65-2.17,34.22-2.1,40.98-3.36,93.63-3.36,151.05s1.26,110.05,3.36,151.05c.77,14.75,1.62,27.99,2.57,39.4,2.44,29.12,5.46,46.35,8.71,46.35Z"/>
            </g>
          </g>
          <g>
            <g>
              <path class="cls-23" d="M848.07,236.78c0,78.06-2.35,147.31-5.93,190.45-2.44,29.12-5.46,46.35-8.71,46.35h-22.55c3.25,0,6.27-17.23,8.71-46.35.95-11.41,1.83-24.65,2.57-39.4,1.47-28.6,2.53-62.86,3.02-100.44.23-16.31.34-33.25.34-50.61,0-15.54-.09-30.74-.27-45.45-.47-39.63-1.56-75.72-3.09-105.6-.63-12.56-1.35-24.04-2.17-34.22-2.5-32.25-5.66-51.52-9.11-51.52h22.55c3.45,0,6.61,19.26,9.11,51.52,3.36,43.37,5.53,110.25,5.53,185.27Z"/>
              <path class="cls-23" d="M848.07,236.78c0,78.06-2.35,147.31-5.93,190.45-2.44,29.12-5.46,46.35-8.71,46.35h-22.55c3.25,0,6.27-17.23,8.71-46.35.95-11.41,1.83-24.65,2.57-39.4,1.47-28.6,2.53-62.86,3.02-100.44.23-16.31.34-33.25.34-50.61,0-15.54-.09-30.74-.27-45.45-.47-39.63-1.56-75.72-3.09-105.6-.63-12.56-1.35-24.04-2.17-34.22-2.5-32.25-5.66-51.52-9.11-51.52h22.55c3.45,0,6.61,19.26,9.11,51.52,3.36,43.37,5.53,110.25,5.53,185.27Z"/>
            </g>
            <g>
              <path class="cls-23" d="M199.05,473.59h-22.55c-3.25,0-6.27-17.23-8.71-46.35-3.59-43.15-5.93-112.39-5.93-190.45s2.17-141.89,5.53-185.27c2.5-32.25,5.66-51.52,9.11-51.52h22.55c-3.45,0-6.61,19.26-9.11,51.52-.79,10.17-1.51,21.65-2.17,34.22-2.1,40.98-3.36,93.63-3.36,151.05s1.26,110.05,3.36,151.05c.77,14.75,1.62,27.99,2.57,39.4,2.44,29.12,5.46,46.35,8.71,46.35Z"/>
              <path class="cls-23" d="M199.05,473.59h-22.55c-3.25,0-6.27-17.23-8.71-46.35-3.59-43.15-5.93-112.39-5.93-190.45s2.17-141.89,5.53-185.27c2.5-32.25,5.66-51.52,9.11-51.52h22.55c-3.45,0-6.61,19.26-9.11,51.52-.79,10.17-1.51,21.65-2.17,34.22-2.1,40.98-3.36,93.63-3.36,151.05s1.26,110.05,3.36,151.05c.77,14.75,1.62,27.99,2.57,39.4,2.44,29.12,5.46,46.35,8.71,46.35Z"/>
            </g>
          </g>
          <g>
            <g>
              <path class="cls-23" d="M848.07,236.78c0,78.06-2.35,147.31-5.93,190.45-2.44,29.12-5.46,46.35-8.71,46.35h-22.55c3.25,0,6.27-17.23,8.71-46.35.95-11.41,1.83-24.65,2.57-39.4,1.47-28.6,2.53-62.86,3.02-100.44.23-16.31.34-33.25.34-50.61,0-15.54-.09-30.74-.27-45.45-.47-39.63-1.56-75.72-3.09-105.6-.63-12.56-1.35-24.04-2.17-34.22-2.5-32.25-5.66-51.52-9.11-51.52h22.55c3.45,0,6.61,19.26,9.11,51.52,3.36,43.37,5.53,110.25,5.53,185.27Z"/>
              <path class="cls-23" d="M848.07,236.78c0,78.06-2.35,147.31-5.93,190.45-2.44,29.12-5.46,46.35-8.71,46.35h-22.55c3.25,0,6.27-17.23,8.71-46.35.95-11.41,1.83-24.65,2.57-39.4,1.47-28.6,2.53-62.86,3.02-100.44.23-16.31.34-33.25.34-50.61,0-15.54-.09-30.74-.27-45.45-.47-39.63-1.56-75.72-3.09-105.6-.63-12.56-1.35-24.04-2.17-34.22-2.5-32.25-5.66-51.52-9.11-51.52h22.55c3.45,0,6.61,19.26,9.11,51.52,3.36,43.37,5.53,110.25,5.53,185.27Z"/>
            </g>
            <g>
              <path class="cls-23" d="M199.05,473.59h-22.55c-3.25,0-6.27-17.23-8.71-46.35-3.59-43.15-5.93-112.39-5.93-190.45s2.17-141.89,5.53-185.27c2.5-32.25,5.66-51.52,9.11-51.52h22.55c-3.45,0-6.61,19.26-9.11,51.52-.79,10.17-1.51,21.65-2.17,34.22-2.1,40.98-3.36,93.63-3.36,151.05s1.26,110.05,3.36,151.05c.77,14.75,1.62,27.99,2.57,39.4,2.44,29.12,5.46,46.35,8.71,46.35Z"/>
              <path class="cls-23" d="M199.05,473.59h-22.55c-3.25,0-6.27-17.23-8.71-46.35-3.59-43.15-5.93-112.39-5.93-190.45s2.17-141.89,5.53-185.27c2.5-32.25,5.66-51.52,9.11-51.52h22.55c-3.45,0-6.61,19.26-9.11,51.52-.79,10.17-1.51,21.65-2.17,34.22-2.1,40.98-3.36,93.63-3.36,151.05s1.26,110.05,3.36,151.05c.77,14.75,1.62,27.99,2.57,39.4,2.44,29.12,5.46,46.35,8.71,46.35Z"/>
            </g>
          </g>
        </g>
        <g>
          <g>
            <g>
              <path class="cls-23" d="M208.84,427.24h-8.95c-2.73,0-5.03-61.24-5.64-143.65-.11-14.14-.16-28.92-.16-44.12s.07-30.09.16-44.3c.61-82.33,2.91-143.47,5.64-143.47h8.95c-.2,0-.38.32-.59.92-1.56,5.01-2.93,30.04-3.9,67.06-.56,22.58-.99,49.64-1.17,79.33-.11,13.04-.16,26.57-.16,40.46s.05,27.31.16,40.28c.18,29.75.61,56.86,1.17,79.48.9,34.51,2.17,58.64,3.59,65.79.29,1.44.59,2.21.9,2.21Z"/>
              <path class="cls-23" d="M208.84,427.24h-8.95c-2.73,0-5.03-61.24-5.64-143.65-.11-14.14-.16-28.92-.16-44.12s.07-30.09.16-44.3c.61-82.33,2.91-143.47,5.64-143.47h8.95c-.2,0-.38.32-.59.92-1.56,5.01-2.93,30.04-3.9,67.06-.56,22.58-.99,49.64-1.17,79.33-.11,13.04-.16,26.57-.16,40.46s.05,27.31.16,40.28c.18,29.75.61,56.86,1.17,79.48.9,34.51,2.17,58.64,3.59,65.79.29,1.44.59,2.21.9,2.21Z"/>
            </g>
            <g>
              <path class="cls-23" d="M815.84,239.47c0,15.09-.05,29.77-.16,43.82-.61,82.55-2.91,143.95-5.64,143.95h-8.95c.32,0,.61-.77.9-2.21,1.44-7.15,2.71-31.28,3.59-65.79.59-22.69.99-49.89,1.2-79.75.09-12.9.14-26.28.14-40.01s-.05-27.25-.14-40.19c-.2-29.8-.61-56.95-1.2-79.6-.95-37.01-2.35-62.05-3.9-67.06-.2-.61-.38-.92-.59-.92h8.95c2.73,0,5.03,61.28,5.64,143.77.11,14.12.16,28.85.16,44Z"/>
              <path class="cls-23" d="M815.84,239.47c0,15.09-.05,29.77-.16,43.82-.61,82.55-2.91,143.95-5.64,143.95h-8.95c.32,0,.61-.77.9-2.21,1.44-7.15,2.71-31.28,3.59-65.79.59-22.69.99-49.89,1.2-79.75.09-12.9.14-26.28.14-40.01s-.05-27.25-.14-40.19c-.2-29.8-.61-56.95-1.2-79.6-.95-37.01-2.35-62.05-3.9-67.06-.2-.61-.38-.92-.59-.92h8.95c2.73,0,5.03,61.28,5.64,143.77.11,14.12.16,28.85.16,44Z"/>
            </g>
          </g>
          <g>
            <g>
              <path class="cls-23" d="M208.84,427.24h-8.95c-2.73,0-5.03-61.24-5.64-143.65-.11-14.14-.16-28.92-.16-44.12s.07-30.09.16-44.3c.61-82.33,2.91-143.47,5.64-143.47h8.95c-.2,0-.38.32-.59.92-1.56,5.01-2.93,30.04-3.9,67.06-.56,22.58-.99,49.64-1.17,79.33-.11,13.04-.16,26.57-.16,40.46s.05,27.31.16,40.28c.18,29.75.61,56.86,1.17,79.48.9,34.51,2.17,58.64,3.59,65.79.29,1.44.59,2.21.9,2.21Z"/>
              <path class="cls-23" d="M208.84,427.24h-8.95c-2.73,0-5.03-61.24-5.64-143.65-.11-14.14-.16-28.92-.16-44.12s.07-30.09.16-44.3c.61-82.33,2.91-143.47,5.64-143.47h8.95c-.2,0-.38.32-.59.92-1.56,5.01-2.93,30.04-3.9,67.06-.56,22.58-.99,49.64-1.17,79.33-.11,13.04-.16,26.57-.16,40.46s.05,27.31.16,40.28c.18,29.75.61,56.86,1.17,79.48.9,34.51,2.17,58.64,3.59,65.79.29,1.44.59,2.21.9,2.21Z"/>
            </g>
            <g>
              <path class="cls-23" d="M815.84,239.47c0,15.09-.05,29.77-.16,43.82-.61,82.55-2.91,143.95-5.64,143.95h-8.95c.32,0,.61-.77.9-2.21,1.44-7.15,2.71-31.28,3.59-65.79.59-22.69.99-49.89,1.2-79.75.09-12.9.14-26.28.14-40.01s-.05-27.25-.14-40.19c-.2-29.8-.61-56.95-1.2-79.6-.95-37.01-2.35-62.05-3.9-67.06-.2-.61-.38-.92-.59-.92h8.95c2.73,0,5.03,61.28,5.64,143.77.11,14.12.16,28.85.16,44Z"/>
              <path class="cls-23" d="M815.84,239.47c0,15.09-.05,29.77-.16,43.82-.61,82.55-2.91,143.95-5.64,143.95h-8.95c.32,0,.61-.77.9-2.21,1.44-7.15,2.71-31.28,3.59-65.79.59-22.69.99-49.89,1.2-79.75.09-12.9.14-26.28.14-40.01s-.05-27.25-.14-40.19c-.2-29.8-.61-56.95-1.2-79.6-.95-37.01-2.35-62.05-3.9-67.06-.2-.61-.38-.92-.59-.92h8.95c2.73,0,5.03,61.28,5.64,143.77.11,14.12.16,28.85.16,44Z"/>
            </g>
          </g>
          <g>
            <g>
              <path class="cls-23" d="M208.84,427.24h-8.95c-2.73,0-5.03-61.24-5.64-143.65-.11-14.14-.16-28.92-.16-44.12s.07-30.09.16-44.3c.61-82.33,2.91-143.47,5.64-143.47h8.95c-.2,0-.38.32-.59.92-1.56,5.01-2.93,30.04-3.9,67.06-.56,22.58-.99,49.64-1.17,79.33-.11,13.04-.16,26.57-.16,40.46s.05,27.31.16,40.28c.18,29.75.61,56.86,1.17,79.48.9,34.51,2.17,58.64,3.59,65.79.29,1.44.59,2.21.9,2.21Z"/>
              <path class="cls-23" d="M208.84,427.24h-8.95c-2.73,0-5.03-61.24-5.64-143.65-.11-14.14-.16-28.92-.16-44.12s.07-30.09.16-44.3c.61-82.33,2.91-143.47,5.64-143.47h8.95c-.2,0-.38.32-.59.92-1.56,5.01-2.93,30.04-3.9,67.06-.56,22.58-.99,49.64-1.17,79.33-.11,13.04-.16,26.57-.16,40.46s.05,27.31.16,40.28c.18,29.75.61,56.86,1.17,79.48.9,34.51,2.17,58.64,3.59,65.79.29,1.44.59,2.21.9,2.21Z"/>
            </g>
            <g>
              <path class="cls-23" d="M815.84,239.47c0,15.09-.05,29.77-.16,43.82-.61,82.55-2.91,143.95-5.64,143.95h-8.95c.32,0,.61-.77.9-2.21,1.44-7.15,2.71-31.28,3.59-65.79.59-22.69.99-49.89,1.2-79.75.09-12.9.14-26.28.14-40.01s-.05-27.25-.14-40.19c-.2-29.8-.61-56.95-1.2-79.6-.95-37.01-2.35-62.05-3.9-67.06-.2-.61-.38-.92-.59-.92h8.95c2.73,0,5.03,61.28,5.64,143.77.11,14.12.16,28.85.16,44Z"/>
              <path class="cls-23" d="M815.84,239.47c0,15.09-.05,29.77-.16,43.82-.61,82.55-2.91,143.95-5.64,143.95h-8.95c.32,0,.61-.77.9-2.21,1.44-7.15,2.71-31.28,3.59-65.79.59-22.69.99-49.89,1.2-79.75.09-12.9.14-26.28.14-40.01s-.05-27.25-.14-40.19c-.2-29.8-.61-56.95-1.2-79.6-.95-37.01-2.35-62.05-3.9-67.06-.2-.61-.38-.92-.59-.92h8.95c2.73,0,5.03,61.28,5.64,143.77.11,14.12.16,28.85.16,44Z"/>
            </g>
          </g>
          <g>
            <g>
              <path class="cls-23" d="M208.84,427.24h-8.95c-2.73,0-5.03-61.24-5.64-143.65-.11-14.14-.16-28.92-.16-44.12s.07-30.09.16-44.3c.61-82.33,2.91-143.47,5.64-143.47h8.95c-.2,0-.38.32-.59.92-1.56,5.01-2.93,30.04-3.9,67.06-.56,22.58-.99,49.64-1.17,79.33-.11,13.04-.16,26.57-.16,40.46s.05,27.31.16,40.28c.18,29.75.61,56.86,1.17,79.48.9,34.51,2.17,58.64,3.59,65.79.29,1.44.59,2.21.9,2.21Z"/>
              <path class="cls-23" d="M208.84,427.24h-8.95c-2.73,0-5.03-61.24-5.64-143.65-.11-14.14-.16-28.92-.16-44.12s.07-30.09.16-44.3c.61-82.33,2.91-143.47,5.64-143.47h8.95c-.2,0-.38.32-.59.92-1.56,5.01-2.93,30.04-3.9,67.06-.56,22.58-.99,49.64-1.17,79.33-.11,13.04-.16,26.57-.16,40.46s.05,27.31.16,40.28c.18,29.75.61,56.86,1.17,79.48.9,34.51,2.17,58.64,3.59,65.79.29,1.44.59,2.21.9,2.21Z"/>
            </g>
            <g>
              <path class="cls-23" d="M815.84,239.47c0,15.09-.05,29.77-.16,43.82-.61,82.55-2.91,143.95-5.64,143.95h-8.95c.32,0,.61-.77.9-2.21,1.44-7.15,2.71-31.28,3.59-65.79.59-22.69.99-49.89,1.2-79.75.09-12.9.14-26.28.14-40.01s-.05-27.25-.14-40.19c-.2-29.8-.61-56.95-1.2-79.6-.95-37.01-2.35-62.05-3.9-67.06-.2-.61-.38-.92-.59-.92h8.95c2.73,0,5.03,61.28,5.64,143.77.11,14.12.16,28.85.16,44Z"/>
              <path class="cls-23" d="M815.84,239.47c0,15.09-.05,29.77-.16,43.82-.61,82.55-2.91,143.95-5.64,143.95h-8.95c.32,0,.61-.77.9-2.21,1.44-7.15,2.71-31.28,3.59-65.79.59-22.69.99-49.89,1.2-79.75.09-12.9.14-26.28.14-40.01s-.05-27.25-.14-40.19c-.2-29.8-.61-56.95-1.2-79.6-.95-37.01-2.35-62.05-3.9-67.06-.2-.61-.38-.92-.59-.92h8.95c2.73,0,5.03,61.28,5.64,143.77.11,14.12.16,28.85.16,44Z"/>
            </g>
          </g>
        </g>
        <g>
          <g>
            <polygon class="cls-23" points="227.62 209.51 227.62 269.24 213.48 275.33 203.18 279.75 194.24 283.58 185.09 287.53 185.09 191.22 194.24 195.17 203.18 199 213.53 203.45 227.62 209.51"/>
            <polygon class="cls-23" points="227.62 209.51 227.62 269.24 213.48 275.33 203.18 279.75 194.24 283.58 185.09 287.53 185.09 191.22 194.24 195.17 203.18 199 213.53 203.45 227.62 209.51"/>
          </g>
          <g>
            <polygon class="cls-23" points="825.51 191.22 825.51 287.53 825.17 287.4 815.68 283.29 806.77 279.48 796.42 275.01 782.97 269.24 782.97 209.51 796.37 203.76 806.77 199.27 815.68 195.46 825.24 191.33 825.51 191.22"/>
            <polygon class="cls-23" points="825.51 191.22 825.51 287.53 825.17 287.4 815.68 283.29 806.77 279.48 796.42 275.01 782.97 269.24 782.97 209.51 796.37 203.76 806.77 199.27 815.68 195.46 825.24 191.33 825.51 191.22"/>
          </g>
        </g>
      </g>
      <g>
        <g>
          <g>
            <path class="cls-2" d="M14.66,239.33c0,21.99.79,42.54,2.17,60-9.65-2.37-16.83-11.07-16.83-21.45v-80.05c0-10.47,7.31-19.24,17.1-21.49-1.53,18.09-2.44,39.74-2.44,63Z"/>
            <path class="cls-2" d="M1011.39,198.28v80.05c0,10.69-7.58,19.6-17.68,21.63,1.42-17.59,2.23-38.37,2.23-60.63s-.88-44.66-2.41-62.7c10.19,1.96,17.86,10.92,17.86,21.65Z"/>
          </g>
          <g>
            <g>
              <path class="cls-4" d="M14.66,239.33c0,21.99.79,42.54,2.17,60-9.65-2.37-16.83-11.07-16.83-21.45v-80.05c0-10.47,7.31-19.24,17.1-21.49-1.53,18.09-2.44,39.74-2.44,63Z"/>
              <path class="cls-4" d="M14.66,239.33c0,21.99.79,42.54,2.17,60-9.65-2.37-16.83-11.07-16.83-21.45v-80.05c0-10.47,7.31-19.24,17.1-21.49-1.53,18.09-2.44,39.74-2.44,63Z"/>
            </g>
            <g>
              <path class="cls-4" d="M1011.39,198.28v80.05c0,10.69-7.58,19.6-17.68,21.63,1.42-17.59,2.23-38.37,2.23-60.63s-.88-44.66-2.41-62.7c10.19,1.96,17.86,10.92,17.86,21.65Z"/>
              <path class="cls-4" d="M1011.39,198.28v80.05c0,10.69-7.58,19.6-17.68,21.63,1.42-17.59,2.23-38.37,2.23-60.63s-.88-44.66-2.41-62.7c10.19,1.96,17.86,10.92,17.86,21.65Z"/>
            </g>
          </g>
        </g>
        <g>
          <g>
            <path class="cls-16" d="M79.19,378.38c1.15,4.08,2.37,7.98,3.63,11.73l-54.09-36.02s-.11-.05-.16-.09c-4.96-2.37-9.27-23.66-11.75-54.67-1.38-17.46-2.17-38.01-2.17-60,0-23.25.9-44.91,2.44-63,2.53-29.91,6.83-50.07,11.73-51.76t.05-.02l53.95-35.91c-1.26,3.74-2.48,7.65-3.63,11.73-10.65,37.44-16.49,86.79-16.49,139.01s5.84,101.57,16.49,139.01Z"/>
            <g>
              <path class="cls-16" d="M872.27,427.06l-.25.18v-.14c.09,0,.16,0,.25-.05Z"/>
              <path class="cls-16" d="M872.27,51.7c-.09-.05-.16-.05-.25-.05v-.14l.25.18Z"/>
              <path class="cls-16" d="M995.94,239.33c0,22.26-.81,43.03-2.23,60.63-2.46,30.7-6.74,51.72-11.68,54.04-.05.05-.11.07-.16.09l-56.57,37.67c1.49-4.24,2.89-8.68,4.22-13.38,10.62-37.44,16.49-86.79,16.49-139.01s-5.86-101.56-16.49-139.01c-1.33-4.69-2.73-9.13-4.22-13.38l56.43,37.55s.02,0,.05.02c4.94,1.69,9.23,21.99,11.75,52.06,1.53,18.04,2.41,39.58,2.41,62.7Z"/>
              <path class="cls-16" d="M946,239.38c0,52.21-5.86,101.57-16.49,139.01-1.33,4.69-2.73,9.13-4.22,13.38l-23.84,15.88c18.83-36,28.76-103.53,28.76-168.26s-9.92-132.26-28.76-168.26l23.84,15.88c1.49,4.24,2.89,8.68,4.22,13.38,10.62,37.44,16.49,86.79,16.49,139.01Z"/>
            </g>
          </g>
          <g>
            <g>
              <path class="cls-6" d="M79.19,378.38c1.15,4.08,2.37,7.98,3.63,11.73l-54.09-36.02s-.11-.05-.16-.09c-4.96-2.37-9.27-23.66-11.75-54.67-1.38-17.46-2.17-38.01-2.17-60,0-23.25.9-44.91,2.44-63,2.53-29.91,6.83-50.07,11.73-51.76t.05-.02l53.95-35.91c-1.26,3.74-2.48,7.65-3.63,11.73-10.65,37.44-16.49,86.79-16.49,139.01s5.84,101.57,16.49,139.01Z"/>
              <path class="cls-6" d="M79.19,378.38c1.15,4.08,2.37,7.98,3.63,11.73l-54.09-36.02s-.11-.05-.16-.09c-4.96-2.37-9.27-23.66-11.75-54.67-1.38-17.46-2.17-38.01-2.17-60,0-23.25.9-44.91,2.44-63,2.53-29.91,6.83-50.07,11.73-51.76t.05-.02l53.95-35.91c-1.26,3.74-2.48,7.65-3.63,11.73-10.65,37.44-16.49,86.79-16.49,139.01s5.84,101.57,16.49,139.01Z"/>
              <path class="cls-6" d="M79.19,378.38c1.15,4.08,2.37,7.98,3.63,11.73l-54.09-36.02s-.11-.05-.16-.09c-4.96-2.37-9.27-23.66-11.75-54.67-1.38-17.46-2.17-38.01-2.17-60,0-23.25.9-44.91,2.44-63,2.53-29.91,6.83-50.07,11.73-51.76t.05-.02l53.95-35.91c-1.26,3.74-2.48,7.65-3.63,11.73-10.65,37.44-16.49,86.79-16.49,139.01s5.84,101.57,16.49,139.01Z"/>
            </g>
            <g>
              <g>
                <path class="cls-6" d="M872.27,427.06l-.25.18v-.14c.09,0,.16,0,.25-.05Z"/>
                <path class="cls-6" d="M872.27,51.7c-.09-.05-.16-.05-.25-.05v-.14l.25.18Z"/>
                <path class="cls-6" d="M995.94,239.33c0,22.26-.81,43.03-2.23,60.63-2.46,30.7-6.74,51.72-11.68,54.04-.05.05-.11.07-.16.09l-56.57,37.67c1.49-4.24,2.89-8.68,4.22-13.38,10.62-37.44,16.49-86.79,16.49-139.01s-5.86-101.56-16.49-139.01c-1.33-4.69-2.73-9.13-4.22-13.38l56.43,37.55s.02,0,.05.02c4.94,1.69,9.23,21.99,11.75,52.06,1.53,18.04,2.41,39.58,2.41,62.7Z"/>
                <path class="cls-6" d="M946,239.38c0,52.21-5.86,101.57-16.49,139.01-1.33,4.69-2.73,9.13-4.22,13.38l-23.84,15.88c18.83-36,28.76-103.53,28.76-168.26s-9.92-132.26-28.76-168.26l23.84,15.88c1.49,4.24,2.89,8.68,4.22,13.38,10.62,37.44,16.49,86.79,16.49,139.01Z"/>
              </g>
              <g>
                <path class="cls-6" d="M872.27,427.06l-.25.18v-.14c.09,0,.16,0,.25-.05Z"/>
                <path class="cls-6" d="M872.27,51.7c-.09-.05-.16-.05-.25-.05v-.14l.25.18Z"/>
                <path class="cls-6" d="M995.94,239.33c0,22.26-.81,43.03-2.23,60.63-2.46,30.7-6.74,51.72-11.68,54.04-.05.05-.11.07-.16.09l-56.57,37.67c1.49-4.24,2.89-8.68,4.22-13.38,10.62-37.44,16.49-86.79,16.49-139.01s-5.86-101.56-16.49-139.01c-1.33-4.69-2.73-9.13-4.22-13.38l56.43,37.55s.02,0,.05.02c4.94,1.69,9.23,21.99,11.75,52.06,1.53,18.04,2.41,39.58,2.41,62.7Z"/>
                <path class="cls-6" d="M946,239.38c0,52.21-5.86,101.57-16.49,139.01-1.33,4.69-2.73,9.13-4.22,13.38l-23.84,15.88c18.83-36,28.76-103.53,28.76-168.26s-9.92-132.26-28.76-168.26l23.84,15.88c1.49,4.24,2.89,8.68,4.22,13.38,10.62,37.44,16.49,86.79,16.49,139.01Z"/>
              </g>
              <g>
                <path class="cls-6" d="M872.27,427.06l-.25.18v-.14c.09,0,.16,0,.25-.05Z"/>
                <path class="cls-6" d="M872.27,51.7c-.09-.05-.16-.05-.25-.05v-.14l.25.18Z"/>
                <path class="cls-6" d="M995.94,239.33c0,22.26-.81,43.03-2.23,60.63-2.46,30.7-6.74,51.72-11.68,54.04-.05.05-.11.07-.16.09l-56.57,37.67c1.49-4.24,2.89-8.68,4.22-13.38,10.62-37.44,16.49-86.79,16.49-139.01s-5.86-101.56-16.49-139.01c-1.33-4.69-2.73-9.13-4.22-13.38l56.43,37.55s.02,0,.05.02c4.94,1.69,9.23,21.99,11.75,52.06,1.53,18.04,2.41,39.58,2.41,62.7Z"/>
                <path class="cls-6" d="M946,239.38c0,52.21-5.86,101.57-16.49,139.01-1.33,4.69-2.73,9.13-4.22,13.38l-23.84,15.88c18.83-36,28.76-103.53,28.76-168.26s-9.92-132.26-28.76-168.26l23.84,15.88c1.49,4.24,2.89,8.68,4.22,13.38,10.62,37.44,16.49,86.79,16.49,139.01Z"/>
              </g>
            </g>
          </g>
          <g>
            <g>
              <path class="cls-22" d="M79.19,378.38c1.15,4.08,2.37,7.98,3.63,11.73l-54.09-36.02s-.11-.05-.16-.09c-4.96-2.37-9.27-23.66-11.75-54.67-1.38-17.46-2.17-38.01-2.17-60,0-23.25.9-44.91,2.44-63,2.53-29.91,6.83-50.07,11.73-51.76t.05-.02l53.95-35.91c-1.26,3.74-2.48,7.65-3.63,11.73-10.65,37.44-16.49,86.79-16.49,139.01s5.84,101.57,16.49,139.01Z"/>
              <path class="cls-22" d="M79.19,378.38c1.15,4.08,2.37,7.98,3.63,11.73l-54.09-36.02s-.11-.05-.16-.09c-4.96-2.37-9.27-23.66-11.75-54.67-1.38-17.46-2.17-38.01-2.17-60,0-23.25.9-44.91,2.44-63,2.53-29.91,6.83-50.07,11.73-51.76t.05-.02l53.95-35.91c-1.26,3.74-2.48,7.65-3.63,11.73-10.65,37.44-16.49,86.79-16.49,139.01s5.84,101.57,16.49,139.01Z"/>
              <path class="cls-22" d="M79.19,378.38c1.15,4.08,2.37,7.98,3.63,11.73l-54.09-36.02s-.11-.05-.16-.09c-4.96-2.37-9.27-23.66-11.75-54.67-1.38-17.46-2.17-38.01-2.17-60,0-23.25.9-44.91,2.44-63,2.53-29.91,6.83-50.07,11.73-51.76t.05-.02l53.95-35.91c-1.26,3.74-2.48,7.65-3.63,11.73-10.65,37.44-16.49,86.79-16.49,139.01s5.84,101.57,16.49,139.01Z"/>
            </g>
            <g>
              <g>
                <path class="cls-22" d="M872.27,427.06l-.25.18v-.14c.09,0,.16,0,.25-.05Z"/>
                <path class="cls-22" d="M872.27,51.7c-.09-.05-.16-.05-.25-.05v-.14l.25.18Z"/>
                <path class="cls-22" d="M995.94,239.33c0,22.26-.81,43.03-2.23,60.63-2.46,30.7-6.74,51.72-11.68,54.04-.05.05-.11.07-.16.09l-56.57,37.67c1.49-4.24,2.89-8.68,4.22-13.38,10.62-37.44,16.49-86.79,16.49-139.01s-5.86-101.56-16.49-139.01c-1.33-4.69-2.73-9.13-4.22-13.38l56.43,37.55s.02,0,.05.02c4.94,1.69,9.23,21.99,11.75,52.06,1.53,18.04,2.41,39.58,2.41,62.7Z"/>
                <path class="cls-22" d="M946,239.38c0,52.21-5.86,101.57-16.49,139.01-1.33,4.69-2.73,9.13-4.22,13.38l-23.84,15.88c18.83-36,28.76-103.53,28.76-168.26s-9.92-132.26-28.76-168.26l23.84,15.88c1.49,4.24,2.89,8.68,4.22,13.38,10.62,37.44,16.49,86.79,16.49,139.01Z"/>
              </g>
              <g>
                <path class="cls-22" d="M872.27,427.06l-.25.18v-.14c.09,0,.16,0,.25-.05Z"/>
                <path class="cls-22" d="M872.27,51.7c-.09-.05-.16-.05-.25-.05v-.14l.25.18Z"/>
                <path class="cls-22" d="M995.94,239.33c0,22.26-.81,43.03-2.23,60.63-2.46,30.7-6.74,51.72-11.68,54.04-.05.05-.11.07-.16.09l-56.57,37.67c1.49-4.24,2.89-8.68,4.22-13.38,10.62-37.44,16.49-86.79,16.49-139.01s-5.86-101.56-16.49-139.01c-1.33-4.69-2.73-9.13-4.22-13.38l56.43,37.55s.02,0,.05.02c4.94,1.69,9.23,21.99,11.75,52.06,1.53,18.04,2.41,39.58,2.41,62.7Z"/>
                <path class="cls-22" d="M946,239.38c0,52.21-5.86,101.57-16.49,139.01-1.33,4.69-2.73,9.13-4.22,13.38l-23.84,15.88c18.83-36,28.76-103.53,28.76-168.26s-9.92-132.26-28.76-168.26l23.84,15.88c1.49,4.24,2.89,8.68,4.22,13.38,10.62,37.44,16.49,86.79,16.49,139.01Z"/>
              </g>
              <g>
                <path class="cls-22" d="M872.27,427.06l-.25.18v-.14c.09,0,.16,0,.25-.05Z"/>
                <path class="cls-22" d="M872.27,51.7c-.09-.05-.16-.05-.25-.05v-.14l.25.18Z"/>
                <path class="cls-22" d="M995.94,239.33c0,22.26-.81,43.03-2.23,60.63-2.46,30.7-6.74,51.72-11.68,54.04-.05.05-.11.07-.16.09l-56.57,37.67c1.49-4.24,2.89-8.68,4.22-13.38,10.62-37.44,16.49-86.79,16.49-139.01s-5.86-101.56-16.49-139.01c-1.33-4.69-2.73-9.13-4.22-13.38l56.43,37.55s.02,0,.05.02c4.94,1.69,9.23,21.99,11.75,52.06,1.53,18.04,2.41,39.58,2.41,62.7Z"/>
                <path class="cls-22" d="M946,239.38c0,52.21-5.86,101.57-16.49,139.01-1.33,4.69-2.73,9.13-4.22,13.38l-23.84,15.88c18.83-36,28.76-103.53,28.76-168.26s-9.92-132.26-28.76-168.26l23.84,15.88c1.49,4.24,2.89,8.68,4.22,13.38,10.62,37.44,16.49,86.79,16.49,139.01Z"/>
              </g>
            </g>
          </g>
        </g>
        <g>
          <g>
            <path class="cls-16" d="M190.34,427.24h-49.85v-.14c-.63.09-1.26.14-1.89.14-6.9,0-13.47-4.6-19.53-12.99-19.8-27.43-33.81-95.39-33.81-174.87s14.01-147.44,33.81-174.87c6.07-8.39,12.63-12.99,19.53-12.99.63,0,1.26.05,1.89.14v-.14h49.44c-.79,10.17-1.51,21.65-2.17,34.22-2.1,40.98-3.36,93.63-3.36,151.05s1.26,110.05,3.36,151.05c.77,14.75,1.62,27.99,2.57,39.4Z"/>
            <path class="cls-16" d="M923.45,239.38c0,82.12-14.98,151.95-35.84,177.49-4.83,5.93-9.97,9.47-15.34,10.19-.09.05-.16.05-.25.05-.63.09-1.29.14-1.92.14h-50.52c.95-11.41,1.83-24.65,2.57-39.4,1.47-28.6,2.53-62.86,3.02-100.44.25-15.18.38-30.54.41-46.1.02-16.87-.09-33.54-.34-49.96-.47-39.63-1.56-75.72-3.09-105.6-.63-12.56-1.35-24.04-2.17-34.22h50.12c.63,0,1.29.05,1.92.14.09,0,.16,0,.25.05,5.37.72,10.51,4.26,15.34,10.19,20.86,25.53,35.84,95.36,35.84,177.49Z"/>
            <path class="cls-16" d="M825.51,283.29c-.73,82.55-3.49,143.95-6.76,143.95H191.17c-3.27,0-6.03-61.24-6.76-143.65v-88.42c.73-82.33,3.49-143.47,6.76-143.47h9.95c0-.07,0-.14-.03-.18h607.72s-.03.11-.03.18h9.95c3.27,0,6.03,61.28,6.76,143.77v87.83Z"/>
          </g>
          <g>
            <g>
              <path class="cls-9" d="M190.34,427.24h-49.85v-.14c-.63.09-1.26.14-1.89.14-6.9,0-13.47-4.6-19.53-12.99-19.8-27.43-33.81-95.39-33.81-174.87s14.01-147.44,33.81-174.87c6.07-8.39,12.63-12.99,19.53-12.99.63,0,1.26.05,1.89.14v-.14h49.44c-.79,10.17-1.51,21.65-2.17,34.22-2.1,40.98-3.36,93.63-3.36,151.05s1.26,110.05,3.36,151.05c.77,14.75,1.62,27.99,2.57,39.4Z"/>
              <path class="cls-9" d="M190.34,427.24h-49.85v-.14c-.63.09-1.26.14-1.89.14-6.9,0-13.47-4.6-19.53-12.99-19.8-27.43-33.81-95.39-33.81-174.87s14.01-147.44,33.81-174.87c6.07-8.39,12.63-12.99,19.53-12.99.63,0,1.26.05,1.89.14v-.14h49.44c-.79,10.17-1.51,21.65-2.17,34.22-2.1,40.98-3.36,93.63-3.36,151.05s1.26,110.05,3.36,151.05c.77,14.75,1.62,27.99,2.57,39.4Z"/>
            </g>
            <g>
              <path class="cls-9" d="M923.45,239.38c0,82.12-14.98,151.95-35.84,177.49-4.83,5.93-9.97,9.47-15.34,10.19-.09.05-.16.05-.25.05-.63.09-1.29.14-1.92.14h-50.52c.95-11.41,1.83-24.65,2.57-39.4,1.47-28.6,2.53-62.86,3.02-100.44.25-15.18.38-30.54.41-46.1.02-16.87-.09-33.54-.34-49.96-.47-39.63-1.56-75.72-3.09-105.6-.63-12.56-1.35-24.04-2.17-34.22h50.12c.63,0,1.29.05,1.92.14.09,0,.16,0,.25.05,5.37.72,10.51,4.26,15.34,10.19,20.86,25.53,35.84,95.36,35.84,177.49Z"/>
              <path class="cls-9" d="M923.45,239.38c0,82.12-14.98,151.95-35.84,177.49-4.83,5.93-9.97,9.47-15.34,10.19-.09.05-.16.05-.25.05-.63.09-1.29.14-1.92.14h-50.52c.95-11.41,1.83-24.65,2.57-39.4,1.47-28.6,2.53-62.86,3.02-100.44.25-15.18.38-30.54.41-46.1.02-16.87-.09-33.54-.34-49.96-.47-39.63-1.56-75.72-3.09-105.6-.63-12.56-1.35-24.04-2.17-34.22h50.12c.63,0,1.29.05,1.92.14.09,0,.16,0,.25.05,5.37.72,10.51,4.26,15.34,10.19,20.86,25.53,35.84,95.36,35.84,177.49Z"/>
            </g>
            <g>
              <path class="cls-9" d="M825.51,283.29c-.73,82.55-3.49,143.95-6.76,143.95H191.17c-3.27,0-6.03-61.24-6.76-143.65v-88.42c.73-82.33,3.49-143.47,6.76-143.47h9.95c0-.07,0-.14-.03-.18h607.72s-.03.11-.03.18h9.95c3.27,0,6.03,61.28,6.76,143.77v87.83Z"/>
              <path class="cls-9" d="M825.51,283.29c-.73,82.55-3.49,143.95-6.76,143.95H191.17c-3.27,0-6.03-61.24-6.76-143.65v-88.42c.73-82.33,3.49-143.47,6.76-143.47h9.95c0-.07,0-.14-.03-.18h607.72s-.03.11-.03.18h9.95c3.27,0,6.03,61.28,6.76,143.77v87.83Z"/>
            </g>
          </g>
          <g>
            <g>
              <path class="cls-21" d="M190.34,427.24h-49.85v-.14c-.63.09-1.26.14-1.89.14-6.9,0-13.47-4.6-19.53-12.99-19.8-27.43-33.81-95.39-33.81-174.87s14.01-147.44,33.81-174.87c6.07-8.39,12.63-12.99,19.53-12.99.63,0,1.26.05,1.89.14v-.14h49.44c-.79,10.17-1.51,21.65-2.17,34.22-2.1,40.98-3.36,93.63-3.36,151.05s1.26,110.05,3.36,151.05c.77,14.75,1.62,27.99,2.57,39.4Z"/>
              <path class="cls-21" d="M190.34,427.24h-49.85v-.14c-.63.09-1.26.14-1.89.14-6.9,0-13.47-4.6-19.53-12.99-19.8-27.43-33.81-95.39-33.81-174.87s14.01-147.44,33.81-174.87c6.07-8.39,12.63-12.99,19.53-12.99.63,0,1.26.05,1.89.14v-.14h49.44c-.79,10.17-1.51,21.65-2.17,34.22-2.1,40.98-3.36,93.63-3.36,151.05s1.26,110.05,3.36,151.05c.77,14.75,1.62,27.99,2.57,39.4Z"/>
            </g>
            <g>
              <path class="cls-21" d="M923.45,239.38c0,82.12-14.98,151.95-35.84,177.49-4.83,5.93-9.97,9.47-15.34,10.19-.09.05-.16.05-.25.05-.63.09-1.29.14-1.92.14h-50.52c.95-11.41,1.83-24.65,2.57-39.4,1.47-28.6,2.53-62.86,3.02-100.44.25-15.18.38-30.54.41-46.1.02-16.87-.09-33.54-.34-49.96-.47-39.63-1.56-75.72-3.09-105.6-.63-12.56-1.35-24.04-2.17-34.22h50.12c.63,0,1.29.05,1.92.14.09,0,.16,0,.25.05,5.37.72,10.51,4.26,15.34,10.19,20.86,25.53,35.84,95.36,35.84,177.49Z"/>
              <path class="cls-21" d="M923.45,239.38c0,82.12-14.98,151.95-35.84,177.49-4.83,5.93-9.97,9.47-15.34,10.19-.09.05-.16.05-.25.05-.63.09-1.29.14-1.92.14h-50.52c.95-11.41,1.83-24.65,2.57-39.4,1.47-28.6,2.53-62.86,3.02-100.44.25-15.18.38-30.54.41-46.1.02-16.87-.09-33.54-.34-49.96-.47-39.63-1.56-75.72-3.09-105.6-.63-12.56-1.35-24.04-2.17-34.22h50.12c.63,0,1.29.05,1.92.14.09,0,.16,0,.25.05,5.37.72,10.51,4.26,15.34,10.19,20.86,25.53,35.84,95.36,35.84,177.49Z"/>
            </g>
            <g>
              <path class="cls-21" d="M825.51,283.29c-.73,82.55-3.49,143.95-6.76,143.95H191.17c-3.27,0-6.03-61.24-6.76-143.65v-88.42c.73-82.33,3.49-143.47,6.76-143.47h9.95c0-.07,0-.14-.03-.18h607.72s-.03.11-.03.18h9.95c3.27,0,6.03,61.28,6.76,143.77v87.83Z"/>
              <path class="cls-21" d="M825.51,283.29c-.73,82.55-3.49,143.95-6.76,143.95H191.17c-3.27,0-6.03-61.24-6.76-143.65v-88.42c.73-82.33,3.49-143.47,6.76-143.47h9.95c0-.07,0-.14-.03-.18h607.72s-.03.11-.03.18h9.95c3.27,0,6.03,61.28,6.76,143.77v87.83Z"/>
            </g>
          </g>
        </g>
        <g>
          <g>
            <path class="cls-12" d="M140.49,427.24h14.84c-5.14,4.38-10.74,6.77-16.74,6.77-12.74,0-23.55-10.67-32.34-28.31-18.2-36.45-27.77-102.74-27.77-166.32s9.56-129.87,27.77-166.32c8.8-17.64,19.6-28.31,32.34-28.31,6,0,11.59,2.39,16.74,6.77h-14.84v.14c-.63-.09-1.26-.14-1.89-.14-6.9,0-13.47,4.6-19.53,12.99-19.8,27.43-33.81,95.38-33.81,174.87s14.01,147.44,33.81,174.87c6.07,8.39,12.63,12.99,19.53,12.99.63,0,1.26-.05,1.89-.14v.14Z"/>
            <path class="cls-12" d="M930.21,239.38c0,64.73-9.92,132.26-28.76,168.26-8.62,16.49-19.1,26.37-31.35,26.37-6,0-11.59-2.39-16.74-6.77h18.65l.25-.18c5.37-.72,10.51-4.26,15.34-10.19,20.86-25.53,35.84-95.36,35.84-177.49s-14.98-151.95-35.84-177.49c-4.83-5.93-9.97-9.47-15.34-10.19l-.25-.18h-18.65c5.14-4.38,10.74-6.77,16.74-6.77,12.25,0,22.74,9.88,31.35,26.37,18.83,36,28.76,103.53,28.76,168.26Z"/>
          </g>
          <g>
            <g>
              <path class="cls-20" d="M140.49,427.24h14.84c-5.14,4.38-10.74,6.77-16.74,6.77-12.74,0-23.55-10.67-32.34-28.31-18.2-36.45-27.77-102.74-27.77-166.32s9.56-129.87,27.77-166.32c8.8-17.64,19.6-28.31,32.34-28.31,6,0,11.59,2.39,16.74,6.77h-14.84v.14c-.63-.09-1.26-.14-1.89-.14-6.9,0-13.47,4.6-19.53,12.99-19.8,27.43-33.81,95.38-33.81,174.87s14.01,147.44,33.81,174.87c6.07,8.39,12.63,12.99,19.53,12.99.63,0,1.26-.05,1.89-.14v.14Z"/>
              <path class="cls-20" d="M140.49,427.24h14.84c-5.14,4.38-10.74,6.77-16.74,6.77-12.74,0-23.55-10.67-32.34-28.31-18.2-36.45-27.77-102.74-27.77-166.32s9.56-129.87,27.77-166.32c8.8-17.64,19.6-28.31,32.34-28.31,6,0,11.59,2.39,16.74,6.77h-14.84v.14c-.63-.09-1.26-.14-1.89-.14-6.9,0-13.47,4.6-19.53,12.99-19.8,27.43-33.81,95.38-33.81,174.87s14.01,147.44,33.81,174.87c6.07,8.39,12.63,12.99,19.53,12.99.63,0,1.26-.05,1.89-.14v.14Z"/>
            </g>
            <g>
              <path class="cls-20" d="M930.21,239.38c0,64.73-9.92,132.26-28.76,168.26-8.62,16.49-19.1,26.37-31.35,26.37-6,0-11.59-2.39-16.74-6.77h18.65l.25-.18c5.37-.72,10.51-4.26,15.34-10.19,20.86-25.53,35.84-95.36,35.84-177.49s-14.98-151.95-35.84-177.49c-4.83-5.93-9.97-9.47-15.34-10.19l-.25-.18h-18.65c5.14-4.38,10.74-6.77,16.74-6.77,12.25,0,22.74,9.88,31.35,26.37,18.83,36,28.76,103.53,28.76,168.26Z"/>
              <path class="cls-20" d="M930.21,239.38c0,64.73-9.92,132.26-28.76,168.26-8.62,16.49-19.1,26.37-31.35,26.37-6,0-11.59-2.39-16.74-6.77h18.65l.25-.18c5.37-.72,10.51-4.26,15.34-10.19,20.86-25.53,35.84-95.36,35.84-177.49s-14.98-151.95-35.84-177.49c-4.83-5.93-9.97-9.47-15.34-10.19l-.25-.18h-18.65c5.14-4.38,10.74-6.77,16.74-6.77,12.25,0,22.74,9.88,31.35,26.37,18.83,36,28.76,103.53,28.76,168.26Z"/>
            </g>
          </g>
        </g>
        <g>
          <path class="cls-15" d="M138.6,434h-32.57c-8.98-9.97-16.74-24.61-23.21-43.89-1.26-3.74-2.48-7.65-3.63-11.73-10.65-37.44-16.49-86.79-16.49-139.01s5.84-101.56,16.49-139.01c1.15-4.08,2.37-7.98,3.63-11.73,6.47-19.28,14.23-33.92,23.21-43.89h32.57c-12.74,0-23.55,10.67-32.34,28.31-18.2,36.45-27.77,102.74-27.77,166.32s9.56,129.87,27.77,166.32c8.8,17.64,19.6,28.31,32.34,28.31Z"/>
          <path class="cls-1" d="M946,239.38c0,52.21-5.86,101.57-16.49,139.01-1.33,4.69-2.73,9.13-4.22,13.38-6.34,18.47-13.92,32.57-22.65,42.25h-32.55c12.25,0,22.74-9.88,31.35-26.37,18.83-36,28.76-103.53,28.76-168.26s-9.92-132.26-28.76-168.26c-8.62-16.49-19.1-26.37-31.35-26.37h32.55c8.73,9.68,16.31,23.77,22.65,42.25,1.49,4.24,2.89,8.68,4.22,13.38,10.62,37.44,16.49,86.79,16.49,139.01Z"/>
        </g>
        <g>
          <g>
            <path class="cls-12" d="M825.24,191.33l-9.56,4.13c-.61-82.48-2.91-143.77-5.64-143.77h-8.3c0-.07,0-.14.02-.18,2.48-32.25,5.66-51.52,9.11-51.52s6.61,19.26,9.11,51.52c.81,10.17,1.53,21.65,2.17,34.22,1.53,29.89,2.62,65.97,3.09,105.6Z"/>
            <path class="cls-12" d="M199.88,427.24h7.87c-2.41,29.12-5.44,46.35-8.71,46.35s-6.27-17.23-8.71-46.35c-.95-11.41-1.8-24.65-2.57-39.4-2.1-41-3.36-93.65-3.36-151.05s1.26-110.07,3.36-151.05c.65-12.56,1.38-24.04,2.17-34.22,2.5-32.25,5.66-51.52,9.11-51.52s6.63,19.26,9.11,51.52c.02.05.02.11.02.18h-8.3c-2.73,0-5.03,61.15-5.64,143.47l-9.16-3.95v96.31l9.16-3.95c.61,82.42,2.91,143.65,5.64,143.65Z"/>
            <path class="cls-12" d="M825.17,287.4c-.5,37.58-1.56,71.84-3.02,100.44-.74,14.75-1.62,27.99-2.57,39.4-2.44,29.12-5.46,46.35-8.71,46.35s-6.27-17.23-8.71-46.35h7.87c2.73,0,5.03-61.39,5.64-143.95l9.5,4.1Z"/>
          </g>
          <g>
            <g>
              <path class="cls-10" d="M825.24,191.33l-9.56,4.13c-.61-82.48-2.91-143.77-5.64-143.77h-8.3c0-.07,0-.14.02-.18,2.48-32.25,5.66-51.52,9.11-51.52s6.61,19.26,9.11,51.52c.81,10.17,1.53,21.65,2.17,34.22,1.53,29.89,2.62,65.97,3.09,105.6Z"/>
              <path class="cls-10" d="M825.24,191.33l-9.56,4.13c-.61-82.48-2.91-143.77-5.64-143.77h-8.3c0-.07,0-.14.02-.18,2.48-32.25,5.66-51.52,9.11-51.52s6.61,19.26,9.11,51.52c.81,10.17,1.53,21.65,2.17,34.22,1.53,29.89,2.62,65.97,3.09,105.6Z"/>
            </g>
            <g>
              <path class="cls-10" d="M199.88,427.24h7.87c-2.41,29.12-5.44,46.35-8.71,46.35s-6.27-17.23-8.71-46.35c-.95-11.41-1.8-24.65-2.57-39.4-2.1-41-3.36-93.65-3.36-151.05s1.26-110.07,3.36-151.05c.65-12.56,1.38-24.04,2.17-34.22,2.5-32.25,5.66-51.52,9.11-51.52s6.63,19.26,9.11,51.52c.02.05.02.11.02.18h-8.3c-2.73,0-5.03,61.15-5.64,143.47l-9.16-3.95v96.31l9.16-3.95c.61,82.42,2.91,143.65,5.64,143.65Z"/>
              <path class="cls-10" d="M199.88,427.24h7.87c-2.41,29.12-5.44,46.35-8.71,46.35s-6.27-17.23-8.71-46.35c-.95-11.41-1.8-24.65-2.57-39.4-2.1-41-3.36-93.65-3.36-151.05s1.26-110.07,3.36-151.05c.65-12.56,1.38-24.04,2.17-34.22,2.5-32.25,5.66-51.52,9.11-51.52s6.63,19.26,9.11,51.52c.02.05.02.11.02.18h-8.3c-2.73,0-5.03,61.15-5.64,143.47l-9.16-3.95v96.31l9.16-3.95c.61,82.42,2.91,143.65,5.64,143.65Z"/>
            </g>
            <g>
              <path class="cls-10" d="M825.17,287.4c-.5,37.58-1.56,71.84-3.02,100.44-.74,14.75-1.62,27.99-2.57,39.4-2.44,29.12-5.46,46.35-8.71,46.35s-6.27-17.23-8.71-46.35h7.87c2.73,0,5.03-61.39,5.64-143.95l9.5,4.1Z"/>
              <path class="cls-10" d="M825.17,287.4c-.5,37.58-1.56,71.84-3.02,100.44-.74,14.75-1.62,27.99-2.57,39.4-2.44,29.12-5.46,46.35-8.71,46.35s-6.27-17.23-8.71-46.35h7.87c2.73,0,5.03-61.39,5.64-143.95l9.5,4.1Z"/>
            </g>
          </g>
        </g>
        <g>
          <g>
            <path class="cls-13" d="M848.07,236.78c0,78.06-2.35,147.31-5.93,190.45-2.44,29.12-5.46,46.35-8.71,46.35h-22.55c3.25,0,6.27-17.23,8.71-46.35.95-11.41,1.83-24.65,2.57-39.4,1.47-28.6,2.53-62.86,3.02-100.44.23-16.31.34-33.25.34-50.61,0-15.54-.09-30.74-.27-45.45-.47-39.63-1.56-75.72-3.09-105.6-.63-12.56-1.35-24.04-2.17-34.22-2.5-32.25-5.66-51.52-9.11-51.52h22.55c3.45,0,6.61,19.26,9.11,51.52,3.36,43.37,5.53,110.25,5.53,185.27Z"/>
            <path class="cls-13" d="M199.05,473.59h-22.55c-3.25,0-6.27-17.23-8.71-46.35-3.59-43.15-5.93-112.39-5.93-190.45s2.17-141.89,5.53-185.27c2.5-32.25,5.66-51.52,9.11-51.52h22.55c-3.45,0-6.61,19.26-9.11,51.52-.79,10.17-1.51,21.65-2.17,34.22-2.1,40.98-3.36,93.63-3.36,151.05s1.26,110.05,3.36,151.05c.77,14.75,1.62,27.99,2.57,39.4,2.44,29.12,5.46,46.35,8.71,46.35Z"/>
          </g>
          <g>
            <g>
              <path class="cls-17" d="M848.07,236.78c0,78.06-2.35,147.31-5.93,190.45-2.44,29.12-5.46,46.35-8.71,46.35h-22.55c3.25,0,6.27-17.23,8.71-46.35.95-11.41,1.83-24.65,2.57-39.4,1.47-28.6,2.53-62.86,3.02-100.44.23-16.31.34-33.25.34-50.61,0-15.54-.09-30.74-.27-45.45-.47-39.63-1.56-75.72-3.09-105.6-.63-12.56-1.35-24.04-2.17-34.22-2.5-32.25-5.66-51.52-9.11-51.52h22.55c3.45,0,6.61,19.26,9.11,51.52,3.36,43.37,5.53,110.25,5.53,185.27Z"/>
              <path class="cls-17" d="M848.07,236.78c0,78.06-2.35,147.31-5.93,190.45-2.44,29.12-5.46,46.35-8.71,46.35h-22.55c3.25,0,6.27-17.23,8.71-46.35.95-11.41,1.83-24.65,2.57-39.4,1.47-28.6,2.53-62.86,3.02-100.44.23-16.31.34-33.25.34-50.61,0-15.54-.09-30.74-.27-45.45-.47-39.63-1.56-75.72-3.09-105.6-.63-12.56-1.35-24.04-2.17-34.22-2.5-32.25-5.66-51.52-9.11-51.52h22.55c3.45,0,6.61,19.26,9.11,51.52,3.36,43.37,5.53,110.25,5.53,185.27Z"/>
            </g>
            <g>
              <path class="cls-17" d="M199.05,473.59h-22.55c-3.25,0-6.27-17.23-8.71-46.35-3.59-43.15-5.93-112.39-5.93-190.45s2.17-141.89,5.53-185.27c2.5-32.25,5.66-51.52,9.11-51.52h22.55c-3.45,0-6.61,19.26-9.11,51.52-.79,10.17-1.51,21.65-2.17,34.22-2.1,40.98-3.36,93.63-3.36,151.05s1.26,110.05,3.36,151.05c.77,14.75,1.62,27.99,2.57,39.4,2.44,29.12,5.46,46.35,8.71,46.35Z"/>
              <path class="cls-17" d="M199.05,473.59h-22.55c-3.25,0-6.27-17.23-8.71-46.35-3.59-43.15-5.93-112.39-5.93-190.45s2.17-141.89,5.53-185.27c2.5-32.25,5.66-51.52,9.11-51.52h22.55c-3.45,0-6.61,19.26-9.11,51.52-.79,10.17-1.51,21.65-2.17,34.22-2.1,40.98-3.36,93.63-3.36,151.05s1.26,110.05,3.36,151.05c.77,14.75,1.62,27.99,2.57,39.4,2.44,29.12,5.46,46.35,8.71,46.35Z"/>
            </g>
          </g>
        </g>
        <g>
          <g>
            <path class="cls-18" d="M208.84,427.24h-8.95c-2.73,0-5.03-61.24-5.64-143.65-.11-14.14-.16-28.92-.16-44.12s.07-30.09.16-44.3c.61-82.33,2.91-143.47,5.64-143.47h8.95c-.2,0-.38.32-.59.92-1.56,5.01-2.93,30.04-3.9,67.06-.56,22.58-.99,49.64-1.17,79.33-.11,13.04-.16,26.57-.16,40.46s.05,27.31.16,40.28c.18,29.75.61,56.86,1.17,79.48.9,34.51,2.17,58.64,3.59,65.79.29,1.44.59,2.21.9,2.21Z"/>
            <path class="cls-18" d="M815.84,239.47c0,15.09-.05,29.77-.16,43.82-.61,82.55-2.91,143.95-5.64,143.95h-8.95c.32,0,.61-.77.9-2.21,1.44-7.15,2.71-31.28,3.59-65.79.59-22.69.99-49.89,1.2-79.75.09-12.9.14-26.28.14-40.01s-.05-27.25-.14-40.19c-.2-29.8-.61-56.95-1.2-79.6-.95-37.01-2.35-62.05-3.9-67.06-.2-.61-.38-.92-.59-.92h8.95c2.73,0,5.03,61.28,5.64,143.77.11,14.12.16,28.85.16,44Z"/>
          </g>
          <g>
            <g>
              <path class="cls-3" d="M208.84,427.24h-8.95c-2.73,0-5.03-61.24-5.64-143.65-.11-14.14-.16-28.92-.16-44.12s.07-30.09.16-44.3c.61-82.33,2.91-143.47,5.64-143.47h8.95c-.2,0-.38.32-.59.92-1.56,5.01-2.93,30.04-3.9,67.06-.56,22.58-.99,49.64-1.17,79.33-.11,13.04-.16,26.57-.16,40.46s.05,27.31.16,40.28c.18,29.75.61,56.86,1.17,79.48.9,34.51,2.17,58.64,3.59,65.79.29,1.44.59,2.21.9,2.21Z"/>
              <path class="cls-3" d="M208.84,427.24h-8.95c-2.73,0-5.03-61.24-5.64-143.65-.11-14.14-.16-28.92-.16-44.12s.07-30.09.16-44.3c.61-82.33,2.91-143.47,5.64-143.47h8.95c-.2,0-.38.32-.59.92-1.56,5.01-2.93,30.04-3.9,67.06-.56,22.58-.99,49.64-1.17,79.33-.11,13.04-.16,26.57-.16,40.46s.05,27.31.16,40.28c.18,29.75.61,56.86,1.17,79.48.9,34.51,2.17,58.64,3.59,65.79.29,1.44.59,2.21.9,2.21Z"/>
            </g>
            <g>
              <path class="cls-3" d="M815.84,239.47c0,15.09-.05,29.77-.16,43.82-.61,82.55-2.91,143.95-5.64,143.95h-8.95c.32,0,.61-.77.9-2.21,1.44-7.15,2.71-31.28,3.59-65.79.59-22.69.99-49.89,1.2-79.75.09-12.9.14-26.28.14-40.01s-.05-27.25-.14-40.19c-.2-29.8-.61-56.95-1.2-79.6-.95-37.01-2.35-62.05-3.9-67.06-.2-.61-.38-.92-.59-.92h8.95c2.73,0,5.03,61.28,5.64,143.77.11,14.12.16,28.85.16,44Z"/>
              <path class="cls-3" d="M815.84,239.47c0,15.09-.05,29.77-.16,43.82-.61,82.55-2.91,143.95-5.64,143.95h-8.95c.32,0,.61-.77.9-2.21,1.44-7.15,2.71-31.28,3.59-65.79.59-22.69.99-49.89,1.2-79.75.09-12.9.14-26.28.14-40.01s-.05-27.25-.14-40.19c-.2-29.8-.61-56.95-1.2-79.6-.95-37.01-2.35-62.05-3.9-67.06-.2-.61-.38-.92-.59-.92h8.95c2.73,0,5.03,61.28,5.64,143.77.11,14.12.16,28.85.16,44Z"/>
            </g>
          </g>
          <g>
            <g>
              <path class="cls-24" d="M208.84,427.24h-8.95c-2.73,0-5.03-61.24-5.64-143.65-.11-14.14-.16-28.92-.16-44.12s.07-30.09.16-44.3c.61-82.33,2.91-143.47,5.64-143.47h8.95c-.2,0-.38.32-.59.92-1.56,5.01-2.93,30.04-3.9,67.06-.56,22.58-.99,49.64-1.17,79.33-.11,13.04-.16,26.57-.16,40.46s.05,27.31.16,40.28c.18,29.75.61,56.86,1.17,79.48.9,34.51,2.17,58.64,3.59,65.79.29,1.44.59,2.21.9,2.21Z"/>
              <path class="cls-24" d="M208.84,427.24h-8.95c-2.73,0-5.03-61.24-5.64-143.65-.11-14.14-.16-28.92-.16-44.12s.07-30.09.16-44.3c.61-82.33,2.91-143.47,5.64-143.47h8.95c-.2,0-.38.32-.59.92-1.56,5.01-2.93,30.04-3.9,67.06-.56,22.58-.99,49.64-1.17,79.33-.11,13.04-.16,26.57-.16,40.46s.05,27.31.16,40.28c.18,29.75.61,56.86,1.17,79.48.9,34.51,2.17,58.64,3.59,65.79.29,1.44.59,2.21.9,2.21Z"/>
            </g>
            <g>
              <path class="cls-24" d="M815.84,239.47c0,15.09-.05,29.77-.16,43.82-.61,82.55-2.91,143.95-5.64,143.95h-8.95c.32,0,.61-.77.9-2.21,1.44-7.15,2.71-31.28,3.59-65.79.59-22.69.99-49.89,1.2-79.75.09-12.9.14-26.28.14-40.01s-.05-27.25-.14-40.19c-.2-29.8-.61-56.95-1.2-79.6-.95-37.01-2.35-62.05-3.9-67.06-.2-.61-.38-.92-.59-.92h8.95c2.73,0,5.03,61.28,5.64,143.77.11,14.12.16,28.85.16,44Z"/>
              <path class="cls-24" d="M815.84,239.47c0,15.09-.05,29.77-.16,43.82-.61,82.55-2.91,143.95-5.64,143.95h-8.95c.32,0,.61-.77.9-2.21,1.44-7.15,2.71-31.28,3.59-65.79.59-22.69.99-49.89,1.2-79.75.09-12.9.14-26.28.14-40.01s-.05-27.25-.14-40.19c-.2-29.8-.61-56.95-1.2-79.6-.95-37.01-2.35-62.05-3.9-67.06-.2-.61-.38-.92-.59-.92h8.95c2.73,0,5.03,61.28,5.64,143.77.11,14.12.16,28.85.16,44Z"/>
            </g>
          </g>
        </g>
        <g>
          <polygon class="cls-11" points="227.62 209.51 227.62 269.24 213.48 275.33 203.18 279.75 194.24 283.58 185.09 287.53 185.09 191.22 194.24 195.17 203.18 199 213.53 203.45 227.62 209.51"/>
          <polygon class="cls-19" points="825.51 191.22 825.51 287.53 825.17 287.4 815.68 283.29 806.77 279.48 796.42 275.01 782.97 269.24 782.97 209.51 796.37 203.76 806.77 199.27 815.68 195.46 825.24 191.33 825.51 191.22"/>
        </g>
      </g>
    </g>
    <g>
      <g>
        <rect class="cls-8" x="226.78" y="146.2" width="556.75" height="186.34" rx="27.65" ry="27.65"/>
        <path class="cls-7" d="M755.89,146.77c14.96,0,27.08,12.13,27.08,27.08v131.05c0,14.96-12.13,27.08-27.08,27.08H254.43c-14.96,0-27.08-12.12-27.08-27.08v-131.05c0-14.96,12.13-27.08,27.08-27.08h501.46M755.89,145.64H254.43c-15.56,0-28.21,12.66-28.21,28.21v131.05c0,15.55,12.65,28.21,28.21,28.21h501.46c15.56,0,28.21-12.65,28.21-28.21v-131.05c0-15.55-12.65-28.21-28.21-28.21h0Z"/>
      </g>
      <g>
        <path class="cls-14" d="M260.68,156.35h488.96c12.43,0,22.52,10.09,22.52,22.52v121.01c0,12.43-10.09,22.52-22.52,22.52h-488.96c-12.43,0-22.52-10.09-22.52-22.52v-121.01c0-12.43,10.09-22.52,22.52-22.52Z"/>
        <path class="cls-5" d="M749.64,156.92c12.11,0,21.95,9.85,21.95,21.95v121.01c0,12.11-9.85,21.95-21.95,21.95h-488.96c-12.11,0-21.95-9.85-21.95-21.95v-121.01c0-12.11,9.85-21.95,21.95-21.95h488.96M749.64,155.79h-488.96c-12.75,0-23.08,10.33-23.08,23.08v121.01c0,12.75,10.33,23.08,23.08,23.08h488.96c12.75,0,23.08-10.33,23.08-23.08v-121.01c0-12.75-10.33-23.08-23.08-23.08h0Z"/>
      </g>
    </g>
  </g>
</svg>